<mxfile host="app.diagrams.net" modified="2023-09-29T09:08:12.908Z" agent="Mozilla/5.0 (Macintosh; Intel Mac OS X 10_15_7) AppleWebKit/537.36 (KHTML, like Gecko) Chrome/116.0.0.0 Safari/537.36" etag="mL2ncoU0gSsy29QrnDAo" version="21.8.2" type="device">
  <diagram name="Page-1" id="xN-7hxYkHdUEGvbnCWJm">
    <mxGraphModel dx="2931" dy="5151" grid="1" gridSize="10" guides="1" tooltips="1" connect="1" arrows="1" fold="1" page="1" pageScale="1" pageWidth="2339" pageHeight="3300" math="0" shadow="0">
      <root>
        <mxCell id="0" />
        <mxCell id="1" parent="0" />
        <mxCell id="ty6WnAqrlYs5BX0VCluu-7" value="" style="rounded=0;whiteSpace=wrap;html=1;dashed=1;" parent="1" vertex="1">
          <mxGeometry x="469.19" y="410" width="470.81" height="120" as="geometry" />
        </mxCell>
        <mxCell id="AM_hhl6KOl27GlRnKCL_-238" value="" style="rounded=0;whiteSpace=wrap;html=1;fillColor=none;" parent="1" vertex="1">
          <mxGeometry x="433.54999999999995" y="-377.84" width="205.42" height="140" as="geometry" />
        </mxCell>
        <mxCell id="AM_hhl6KOl27GlRnKCL_-80" value="" style="rounded=0;whiteSpace=wrap;html=1;fillColor=none;" parent="1" vertex="1">
          <mxGeometry x="161.42999999999998" y="12.159999999999997" width="120" height="70" as="geometry" />
        </mxCell>
        <mxCell id="AM_hhl6KOl27GlRnKCL_-57" value="" style="rounded=0;whiteSpace=wrap;html=1;fillColor=none;" parent="1" vertex="1">
          <mxGeometry x="180.01" y="-107.84" width="80.84" height="80" as="geometry" />
        </mxCell>
        <mxCell id="AM_hhl6KOl27GlRnKCL_-49" value="" style="group" parent="1" vertex="1" connectable="0">
          <mxGeometry x="190.84999999999997" y="-97.84" width="60" height="60" as="geometry" />
        </mxCell>
        <mxCell id="AM_hhl6KOl27GlRnKCL_-50" value="" style="endArrow=classic;html=1;rounded=0;endSize=1;" parent="AM_hhl6KOl27GlRnKCL_-49" edge="1">
          <mxGeometry width="50" height="50" relative="1" as="geometry">
            <mxPoint y="60" as="sourcePoint" />
            <mxPoint as="targetPoint" />
          </mxGeometry>
        </mxCell>
        <mxCell id="AM_hhl6KOl27GlRnKCL_-51" value="" style="endArrow=classic;html=1;rounded=0;startSize=6;endSize=1;" parent="AM_hhl6KOl27GlRnKCL_-49" edge="1">
          <mxGeometry width="50" height="50" relative="1" as="geometry">
            <mxPoint y="60" as="sourcePoint" />
            <mxPoint x="60" y="60" as="targetPoint" />
          </mxGeometry>
        </mxCell>
        <mxCell id="AM_hhl6KOl27GlRnKCL_-52" value="" style="rounded=0;whiteSpace=wrap;html=1;" parent="AM_hhl6KOl27GlRnKCL_-49" vertex="1">
          <mxGeometry x="8.57142857142857" y="30" width="8.57142857142857" height="30" as="geometry" />
        </mxCell>
        <mxCell id="AM_hhl6KOl27GlRnKCL_-53" value="" style="rounded=0;whiteSpace=wrap;html=1;" parent="AM_hhl6KOl27GlRnKCL_-49" vertex="1">
          <mxGeometry x="17.14285714285714" y="20.000000000000004" width="8.57142857142857" height="40.00000000000001" as="geometry" />
        </mxCell>
        <mxCell id="AM_hhl6KOl27GlRnKCL_-54" value="" style="rounded=0;whiteSpace=wrap;html=1;" parent="AM_hhl6KOl27GlRnKCL_-49" vertex="1">
          <mxGeometry x="25.714285714285708" y="10.000000000000002" width="8.57142857142857" height="50.00000000000001" as="geometry" />
        </mxCell>
        <mxCell id="AM_hhl6KOl27GlRnKCL_-55" value="" style="rounded=0;whiteSpace=wrap;html=1;" parent="AM_hhl6KOl27GlRnKCL_-49" vertex="1">
          <mxGeometry x="34.28571428571428" y="30" width="8.57142857142857" height="30" as="geometry" />
        </mxCell>
        <mxCell id="AM_hhl6KOl27GlRnKCL_-56" value="" style="rounded=0;whiteSpace=wrap;html=1;" parent="AM_hhl6KOl27GlRnKCL_-49" vertex="1">
          <mxGeometry x="42.857142857142854" y="40.00000000000001" width="8.57142857142857" height="20.000000000000004" as="geometry" />
        </mxCell>
        <mxCell id="AM_hhl6KOl27GlRnKCL_-401" style="edgeStyle=orthogonalEdgeStyle;rounded=0;orthogonalLoop=1;jettySize=auto;html=1;exitX=0.5;exitY=1;exitDx=0;exitDy=0;entryX=0.5;entryY=0;entryDx=0;entryDy=0;endSize=2;" parent="1" source="AM_hhl6KOl27GlRnKCL_-58" target="AM_hhl6KOl27GlRnKCL_-80" edge="1">
          <mxGeometry relative="1" as="geometry" />
        </mxCell>
        <mxCell id="AM_hhl6KOl27GlRnKCL_-58" value="&lt;font style=&quot;font-size: 9px;&quot;&gt;Exploration&lt;/font&gt;" style="text;html=1;strokeColor=none;fillColor=none;align=center;verticalAlign=middle;whiteSpace=wrap;rounded=0;" parent="1" vertex="1">
          <mxGeometry x="170.84999999999997" y="-27.840000000000003" width="100" height="20" as="geometry" />
        </mxCell>
        <mxCell id="AM_hhl6KOl27GlRnKCL_-60" value="" style="ellipse;whiteSpace=wrap;html=1;aspect=fixed;" parent="1" vertex="1">
          <mxGeometry x="248.00999999999988" y="22.159999999999997" width="10" height="10" as="geometry" />
        </mxCell>
        <mxCell id="AM_hhl6KOl27GlRnKCL_-61" value="" style="ellipse;whiteSpace=wrap;html=1;aspect=fixed;" parent="1" vertex="1">
          <mxGeometry x="232.29" y="22.159999999999997" width="10" height="10" as="geometry" />
        </mxCell>
        <mxCell id="AM_hhl6KOl27GlRnKCL_-63" value="" style="ellipse;whiteSpace=wrap;html=1;aspect=fixed;" parent="1" vertex="1">
          <mxGeometry x="209.43999999999997" y="22.159999999999997" width="10" height="10" as="geometry" />
        </mxCell>
        <mxCell id="AM_hhl6KOl27GlRnKCL_-65" value="" style="ellipse;whiteSpace=wrap;html=1;aspect=fixed;" parent="1" vertex="1">
          <mxGeometry x="234.28999999999994" y="54.72" width="21.44" height="21.44" as="geometry" />
        </mxCell>
        <mxCell id="AM_hhl6KOl27GlRnKCL_-68" value="" style="ellipse;whiteSpace=wrap;html=1;aspect=fixed;" parent="1" vertex="1">
          <mxGeometry x="183.70999999999995" y="54.72" width="21.44" height="21.44" as="geometry" />
        </mxCell>
        <mxCell id="AM_hhl6KOl27GlRnKCL_-69" value="" style="ellipse;whiteSpace=wrap;html=1;aspect=fixed;" parent="1" vertex="1">
          <mxGeometry x="189.42999999999998" y="22.159999999999997" width="10" height="10" as="geometry" />
        </mxCell>
        <mxCell id="AM_hhl6KOl27GlRnKCL_-74" value="" style="ellipse;whiteSpace=wrap;html=1;aspect=fixed;" parent="1" vertex="1">
          <mxGeometry x="169.42999999999998" y="22.159999999999997" width="10" height="10" as="geometry" />
        </mxCell>
        <mxCell id="AM_hhl6KOl27GlRnKCL_-75" value="" style="endArrow=classic;html=1;rounded=0;exitX=0.5;exitY=1;exitDx=0;exitDy=0;entryX=0.5;entryY=0;entryDx=0;entryDy=0;endSize=1;edgeStyle=orthogonalEdgeStyle;curved=1;" parent="1" source="AM_hhl6KOl27GlRnKCL_-74" target="AM_hhl6KOl27GlRnKCL_-68" edge="1">
          <mxGeometry width="50" height="50" relative="1" as="geometry">
            <mxPoint x="219.42999999999998" y="192.16" as="sourcePoint" />
            <mxPoint x="269.42999999999995" y="142.16" as="targetPoint" />
          </mxGeometry>
        </mxCell>
        <mxCell id="AM_hhl6KOl27GlRnKCL_-76" value="" style="endArrow=classic;html=1;rounded=0;exitX=0.5;exitY=1;exitDx=0;exitDy=0;entryX=0.5;entryY=0;entryDx=0;entryDy=0;endSize=1;edgeStyle=orthogonalEdgeStyle;curved=1;" parent="1" source="AM_hhl6KOl27GlRnKCL_-69" target="AM_hhl6KOl27GlRnKCL_-68" edge="1">
          <mxGeometry width="50" height="50" relative="1" as="geometry">
            <mxPoint x="184.42999999999998" y="42.16" as="sourcePoint" />
            <mxPoint x="204.42999999999998" y="71.16" as="targetPoint" />
          </mxGeometry>
        </mxCell>
        <mxCell id="AM_hhl6KOl27GlRnKCL_-77" value="" style="endArrow=classic;html=1;rounded=0;exitX=0.5;exitY=1;exitDx=0;exitDy=0;entryX=0.5;entryY=0;entryDx=0;entryDy=0;endSize=1;edgeStyle=orthogonalEdgeStyle;curved=1;" parent="1" source="AM_hhl6KOl27GlRnKCL_-63" target="AM_hhl6KOl27GlRnKCL_-68" edge="1">
          <mxGeometry width="50" height="50" relative="1" as="geometry">
            <mxPoint x="184.42999999999998" y="42.16" as="sourcePoint" />
            <mxPoint x="204.42999999999998" y="71.16" as="targetPoint" />
          </mxGeometry>
        </mxCell>
        <mxCell id="AM_hhl6KOl27GlRnKCL_-78" value="" style="endArrow=classic;html=1;rounded=0;exitX=0.5;exitY=1;exitDx=0;exitDy=0;entryX=0.5;entryY=0;entryDx=0;entryDy=0;endSize=1;edgeStyle=orthogonalEdgeStyle;curved=1;" parent="1" source="AM_hhl6KOl27GlRnKCL_-61" target="AM_hhl6KOl27GlRnKCL_-65" edge="1">
          <mxGeometry width="50" height="50" relative="1" as="geometry">
            <mxPoint x="224.42999999999998" y="42.16" as="sourcePoint" />
            <mxPoint x="204.42999999999998" y="71.16" as="targetPoint" />
          </mxGeometry>
        </mxCell>
        <mxCell id="AM_hhl6KOl27GlRnKCL_-79" value="" style="endArrow=classic;html=1;rounded=0;exitX=0.5;exitY=1;exitDx=0;exitDy=0;entryX=0.5;entryY=0;entryDx=0;entryDy=0;endSize=1;edgeStyle=orthogonalEdgeStyle;curved=1;" parent="1" source="AM_hhl6KOl27GlRnKCL_-60" target="AM_hhl6KOl27GlRnKCL_-65" edge="1">
          <mxGeometry width="50" height="50" relative="1" as="geometry">
            <mxPoint x="247.42999999999995" y="42.16" as="sourcePoint" />
            <mxPoint x="254.42999999999995" y="71.16" as="targetPoint" />
          </mxGeometry>
        </mxCell>
        <mxCell id="AM_hhl6KOl27GlRnKCL_-400" style="edgeStyle=orthogonalEdgeStyle;rounded=0;orthogonalLoop=1;jettySize=auto;html=1;exitX=0.5;exitY=1;exitDx=0;exitDy=0;entryX=0.5;entryY=0;entryDx=0;entryDy=0;endSize=2;" parent="1" source="AM_hhl6KOl27GlRnKCL_-81" target="AM_hhl6KOl27GlRnKCL_-37" edge="1">
          <mxGeometry relative="1" as="geometry" />
        </mxCell>
        <mxCell id="AM_hhl6KOl27GlRnKCL_-81" value="&lt;font style=&quot;font-size: 9px;&quot;&gt;Merge Categories&lt;br&gt;&amp;amp; Indicators&lt;br&gt;&lt;/font&gt;" style="text;html=1;strokeColor=none;fillColor=none;align=center;verticalAlign=middle;whiteSpace=wrap;rounded=0;" parent="1" vertex="1">
          <mxGeometry x="172.42999999999998" y="82.16" width="100" height="30" as="geometry" />
        </mxCell>
        <mxCell id="AM_hhl6KOl27GlRnKCL_-82" value="" style="rounded=0;whiteSpace=wrap;html=1;fillColor=none;" parent="1" vertex="1">
          <mxGeometry x="180.01" y="-197.84" width="80" height="50" as="geometry" />
        </mxCell>
        <mxCell id="AM_hhl6KOl27GlRnKCL_-85" value="" style="ellipse;whiteSpace=wrap;html=1;aspect=fixed;" parent="1" vertex="1">
          <mxGeometry x="234.28999999999996" y="-182.84" width="10" height="10" as="geometry" />
        </mxCell>
        <mxCell id="AM_hhl6KOl27GlRnKCL_-86" value="" style="ellipse;whiteSpace=wrap;html=1;aspect=fixed;" parent="1" vertex="1">
          <mxGeometry x="195.14999999999998" y="-182.84" width="10" height="10" as="geometry" />
        </mxCell>
        <mxCell id="AM_hhl6KOl27GlRnKCL_-83" value="" style="shape=image;html=1;verticalAlign=top;verticalLabelPosition=bottom;labelBackgroundColor=#ffffff;imageAspect=0;aspect=fixed;image=https://cdn1.iconfinder.com/data/icons/iconoir-vol-3/24/one-finger-select-hand-gesture-128.png" parent="1" vertex="1">
          <mxGeometry x="212.85" y="-173.84" width="20" height="20" as="geometry" />
        </mxCell>
        <mxCell id="AM_hhl6KOl27GlRnKCL_-402" style="edgeStyle=orthogonalEdgeStyle;rounded=0;orthogonalLoop=1;jettySize=auto;html=1;exitX=0.5;exitY=1;exitDx=0;exitDy=0;entryX=0.5;entryY=0;entryDx=0;entryDy=0;endSize=2;" parent="1" source="AM_hhl6KOl27GlRnKCL_-89" target="AM_hhl6KOl27GlRnKCL_-57" edge="1">
          <mxGeometry relative="1" as="geometry" />
        </mxCell>
        <mxCell id="AM_hhl6KOl27GlRnKCL_-89" value="&lt;font style=&quot;font-size: 9px;&quot;&gt;Project Selection&lt;/font&gt;" style="text;html=1;strokeColor=none;fillColor=none;align=center;verticalAlign=middle;whiteSpace=wrap;rounded=0;" parent="1" vertex="1">
          <mxGeometry x="170.85999999999996" y="-147.84" width="100" height="20" as="geometry" />
        </mxCell>
        <mxCell id="AM_hhl6KOl27GlRnKCL_-91" value="" style="ellipse;whiteSpace=wrap;html=1;aspect=fixed;" parent="1" vertex="1">
          <mxGeometry x="214.42999999999998" y="-182.84" width="10" height="10" as="geometry" />
        </mxCell>
        <mxCell id="AM_hhl6KOl27GlRnKCL_-90" value="" style="verticalLabelPosition=bottom;verticalAlign=top;html=1;shape=mxgraph.basic.tick;fillColor=#000000;" parent="1" vertex="1">
          <mxGeometry x="216.85" y="-184.84" width="10" height="10" as="geometry" />
        </mxCell>
        <mxCell id="AM_hhl6KOl27GlRnKCL_-111" style="edgeStyle=elbowEdgeStyle;rounded=0;orthogonalLoop=1;jettySize=auto;html=1;exitX=0.5;exitY=1;exitDx=0;exitDy=0;endSize=1;elbow=vertical;" parent="1" source="AM_hhl6KOl27GlRnKCL_-100" target="AM_hhl6KOl27GlRnKCL_-121" edge="1">
          <mxGeometry relative="1" as="geometry">
            <mxPoint x="519.81" y="-250.84" as="targetPoint" />
            <Array as="points">
              <mxPoint x="524.81" y="-267.84" />
            </Array>
          </mxGeometry>
        </mxCell>
        <mxCell id="AM_hhl6KOl27GlRnKCL_-100" value="&lt;font style=&quot;font-size: 9px;&quot;&gt;Level N&lt;/font&gt;" style="rounded=0;whiteSpace=wrap;html=1;" parent="1" vertex="1">
          <mxGeometry x="514.81" y="-297.84" width="50" height="20" as="geometry" />
        </mxCell>
        <mxCell id="AM_hhl6KOl27GlRnKCL_-107" value="&lt;font size=&quot;1&quot;&gt;Level N&lt;/font&gt;" style="rounded=0;whiteSpace=wrap;html=1;" parent="1" vertex="1">
          <mxGeometry x="579.6899999999999" y="-297.84" width="50" height="20" as="geometry" />
        </mxCell>
        <mxCell id="AM_hhl6KOl27GlRnKCL_-276" style="edgeStyle=orthogonalEdgeStyle;rounded=0;orthogonalLoop=1;jettySize=auto;html=1;exitX=0.5;exitY=1;exitDx=0;exitDy=0;entryX=0.5;entryY=0;entryDx=0;entryDy=0;endSize=2;" parent="1" source="AM_hhl6KOl27GlRnKCL_-108" target="AM_hhl6KOl27GlRnKCL_-231" edge="1">
          <mxGeometry relative="1" as="geometry">
            <Array as="points">
              <mxPoint x="540" y="-340" />
              <mxPoint x="504" y="-340" />
            </Array>
          </mxGeometry>
        </mxCell>
        <mxCell id="AM_hhl6KOl27GlRnKCL_-277" style="edgeStyle=orthogonalEdgeStyle;rounded=0;orthogonalLoop=1;jettySize=auto;html=1;exitX=0.5;exitY=1;exitDx=0;exitDy=0;entryX=0.5;entryY=0;entryDx=0;entryDy=0;endSize=2;" parent="1" source="AM_hhl6KOl27GlRnKCL_-108" target="AM_hhl6KOl27GlRnKCL_-223" edge="1">
          <mxGeometry relative="1" as="geometry">
            <Array as="points">
              <mxPoint x="540" y="-340" />
              <mxPoint x="573" y="-340" />
            </Array>
          </mxGeometry>
        </mxCell>
        <mxCell id="AM_hhl6KOl27GlRnKCL_-108" value="&lt;font style=&quot;font-size: 8px;&quot;&gt;Level 1&lt;/font&gt;" style="rounded=0;whiteSpace=wrap;html=1;" parent="1" vertex="1">
          <mxGeometry x="514.8100000000001" y="-367.84" width="50" height="20" as="geometry" />
        </mxCell>
        <mxCell id="AM_hhl6KOl27GlRnKCL_-112" style="edgeStyle=elbowEdgeStyle;rounded=0;orthogonalLoop=1;jettySize=auto;html=1;exitX=0.5;exitY=1;exitDx=0;exitDy=0;endSize=1;elbow=vertical;" parent="1" source="AM_hhl6KOl27GlRnKCL_-100" target="AM_hhl6KOl27GlRnKCL_-122" edge="1">
          <mxGeometry relative="1" as="geometry">
            <mxPoint x="549.81" y="-270.84" as="sourcePoint" />
            <mxPoint x="540" y="-253.54000000000005" as="targetPoint" />
          </mxGeometry>
        </mxCell>
        <mxCell id="AM_hhl6KOl27GlRnKCL_-113" style="edgeStyle=elbowEdgeStyle;rounded=0;orthogonalLoop=1;jettySize=auto;html=1;exitX=0.5;exitY=1;exitDx=0;exitDy=0;endSize=1;elbow=vertical;" parent="1" source="AM_hhl6KOl27GlRnKCL_-100" target="AM_hhl6KOl27GlRnKCL_-124" edge="1">
          <mxGeometry relative="1" as="geometry">
            <mxPoint x="549.81" y="-270.84" as="sourcePoint" />
            <mxPoint x="560" y="-255.03000000000006" as="targetPoint" />
            <Array as="points">
              <mxPoint x="554.81" y="-267.84" />
            </Array>
          </mxGeometry>
        </mxCell>
        <mxCell id="AM_hhl6KOl27GlRnKCL_-114" style="edgeStyle=elbowEdgeStyle;rounded=0;orthogonalLoop=1;jettySize=auto;html=1;exitX=0.5;exitY=1;exitDx=0;exitDy=0;endSize=1;elbow=vertical;" parent="1" source="AM_hhl6KOl27GlRnKCL_-107" target="AM_hhl6KOl27GlRnKCL_-126" edge="1">
          <mxGeometry relative="1" as="geometry">
            <mxPoint x="554.6899999999999" y="-260.84" as="sourcePoint" />
            <mxPoint x="584.1599999999999" y="-252.6" as="targetPoint" />
            <Array as="points">
              <mxPoint x="589.6899999999999" y="-267.84" />
            </Array>
          </mxGeometry>
        </mxCell>
        <mxCell id="AM_hhl6KOl27GlRnKCL_-115" style="edgeStyle=elbowEdgeStyle;rounded=0;orthogonalLoop=1;jettySize=auto;html=1;exitX=0.5;exitY=1;exitDx=0;exitDy=0;endSize=1;elbow=vertical;" parent="1" source="AM_hhl6KOl27GlRnKCL_-107" target="AM_hhl6KOl27GlRnKCL_-127" edge="1">
          <mxGeometry relative="1" as="geometry">
            <mxPoint x="564.6899999999999" y="-250.84" as="sourcePoint" />
            <mxPoint x="604.57" y="-254.63999999999996" as="targetPoint" />
          </mxGeometry>
        </mxCell>
        <mxCell id="AM_hhl6KOl27GlRnKCL_-116" style="edgeStyle=elbowEdgeStyle;rounded=0;orthogonalLoop=1;jettySize=auto;html=1;exitX=0.5;exitY=1;exitDx=0;exitDy=0;endSize=1;elbow=vertical;" parent="1" source="AM_hhl6KOl27GlRnKCL_-107" target="AM_hhl6KOl27GlRnKCL_-128" edge="1">
          <mxGeometry relative="1" as="geometry">
            <mxPoint x="614.69" y="-270.84" as="sourcePoint" />
            <mxPoint x="624.16" y="-252.6" as="targetPoint" />
            <Array as="points">
              <mxPoint x="609.6899999999999" y="-267.84" />
            </Array>
          </mxGeometry>
        </mxCell>
        <mxCell id="AM_hhl6KOl27GlRnKCL_-121" value="" style="sketch=0;pointerEvents=1;shadow=0;dashed=0;html=1;strokeColor=none;fillColor=#505050;labelPosition=center;verticalLabelPosition=bottom;verticalAlign=top;outlineConnect=0;align=center;shape=mxgraph.office.concepts.home;" parent="1" vertex="1">
          <mxGeometry x="515.31" y="-257.84" width="8" height="8" as="geometry" />
        </mxCell>
        <mxCell id="AM_hhl6KOl27GlRnKCL_-122" value="" style="sketch=0;pointerEvents=1;shadow=0;dashed=0;html=1;strokeColor=none;fillColor=#505050;labelPosition=center;verticalLabelPosition=bottom;verticalAlign=top;outlineConnect=0;align=center;shape=mxgraph.office.concepts.home;" parent="1" vertex="1">
          <mxGeometry x="535.81" y="-257.84" width="8" height="8" as="geometry" />
        </mxCell>
        <mxCell id="AM_hhl6KOl27GlRnKCL_-124" value="" style="sketch=0;pointerEvents=1;shadow=0;dashed=0;html=1;strokeColor=none;fillColor=#505050;labelPosition=center;verticalLabelPosition=bottom;verticalAlign=top;outlineConnect=0;align=center;shape=mxgraph.office.concepts.home;" parent="1" vertex="1">
          <mxGeometry x="555.1899999999999" y="-257.84" width="8" height="8" as="geometry" />
        </mxCell>
        <mxCell id="AM_hhl6KOl27GlRnKCL_-126" value="" style="sketch=0;pointerEvents=1;shadow=0;dashed=0;html=1;strokeColor=none;fillColor=#505050;labelPosition=center;verticalLabelPosition=bottom;verticalAlign=top;outlineConnect=0;align=center;shape=mxgraph.office.concepts.home;" parent="1" vertex="1">
          <mxGeometry x="580.1899999999999" y="-257.84" width="8" height="8" as="geometry" />
        </mxCell>
        <mxCell id="AM_hhl6KOl27GlRnKCL_-127" value="" style="sketch=0;pointerEvents=1;shadow=0;dashed=0;html=1;strokeColor=none;fillColor=#505050;labelPosition=center;verticalLabelPosition=bottom;verticalAlign=top;outlineConnect=0;align=center;shape=mxgraph.office.concepts.home;" parent="1" vertex="1">
          <mxGeometry x="600.6899999999999" y="-257.84" width="8" height="8" as="geometry" />
        </mxCell>
        <mxCell id="AM_hhl6KOl27GlRnKCL_-128" value="" style="sketch=0;pointerEvents=1;shadow=0;dashed=0;html=1;strokeColor=none;fillColor=#505050;labelPosition=center;verticalLabelPosition=bottom;verticalAlign=top;outlineConnect=0;align=center;shape=mxgraph.office.concepts.home;" parent="1" vertex="1">
          <mxGeometry x="621.19" y="-257.84" width="8" height="8" as="geometry" />
        </mxCell>
        <mxCell id="AM_hhl6KOl27GlRnKCL_-143" value="" style="endArrow=classic;html=1;rounded=0;endSize=1;" parent="1" edge="1">
          <mxGeometry width="50" height="50" relative="1" as="geometry">
            <mxPoint x="496.34999999999997" y="13.199999999999985" as="sourcePoint" />
            <mxPoint x="496.34999999999997" y="-66.80000000000001" as="targetPoint" />
          </mxGeometry>
        </mxCell>
        <mxCell id="AM_hhl6KOl27GlRnKCL_-144" value="" style="endArrow=classic;html=1;rounded=0;startSize=6;endSize=1;" parent="1" edge="1">
          <mxGeometry width="50" height="50" relative="1" as="geometry">
            <mxPoint x="496.34999999999997" y="13.199999999999985" as="sourcePoint" />
            <mxPoint x="576.3499999999999" y="13.199999999999985" as="targetPoint" />
          </mxGeometry>
        </mxCell>
        <mxCell id="AM_hhl6KOl27GlRnKCL_-145" value="" style="ellipse;whiteSpace=wrap;html=1;aspect=fixed;fillColor=#000000;" parent="1" vertex="1">
          <mxGeometry x="506.34999999999997" y="-16.800000000000015" width="3" height="3" as="geometry" />
        </mxCell>
        <mxCell id="AM_hhl6KOl27GlRnKCL_-146" value="" style="ellipse;whiteSpace=wrap;html=1;aspect=fixed;fillColor=#000000;" parent="1" vertex="1">
          <mxGeometry x="516.35" y="-36.80000000000001" width="3" height="3" as="geometry" />
        </mxCell>
        <mxCell id="AM_hhl6KOl27GlRnKCL_-147" value="" style="ellipse;whiteSpace=wrap;html=1;aspect=fixed;fillColor=#000000;" parent="1" vertex="1">
          <mxGeometry x="536.35" y="-46.80000000000001" width="3" height="3" as="geometry" />
        </mxCell>
        <mxCell id="AM_hhl6KOl27GlRnKCL_-148" value="" style="ellipse;whiteSpace=wrap;html=1;aspect=fixed;fillColor=#000000;" parent="1" vertex="1">
          <mxGeometry x="556.35" y="-46.80000000000001" width="3" height="3" as="geometry" />
        </mxCell>
        <mxCell id="AM_hhl6KOl27GlRnKCL_-149" value="" style="endArrow=none;html=1;rounded=0;" parent="1" edge="1">
          <mxGeometry width="50" height="50" relative="1" as="geometry">
            <mxPoint x="507.6599999999999" y="-10.300000000000015" as="sourcePoint" />
            <mxPoint x="507.6599999999999" y="-20.300000000000015" as="targetPoint" />
          </mxGeometry>
        </mxCell>
        <mxCell id="AM_hhl6KOl27GlRnKCL_-150" value="" style="endArrow=none;html=1;rounded=0;" parent="1" edge="1">
          <mxGeometry width="50" height="50" relative="1" as="geometry">
            <mxPoint x="517.66" y="-25.300000000000015" as="sourcePoint" />
            <mxPoint x="517.66" y="-45.30000000000001" as="targetPoint" />
          </mxGeometry>
        </mxCell>
        <mxCell id="AM_hhl6KOl27GlRnKCL_-151" value="" style="endArrow=none;html=1;rounded=0;" parent="1" edge="1">
          <mxGeometry width="50" height="50" relative="1" as="geometry">
            <mxPoint x="537.66" y="-35.30000000000001" as="sourcePoint" />
            <mxPoint x="537.66" y="-55.30000000000001" as="targetPoint" />
          </mxGeometry>
        </mxCell>
        <mxCell id="AM_hhl6KOl27GlRnKCL_-152" value="" style="endArrow=none;html=1;rounded=0;" parent="1" edge="1">
          <mxGeometry width="50" height="50" relative="1" as="geometry">
            <mxPoint x="557.66" y="-35.30000000000001" as="sourcePoint" />
            <mxPoint x="557.66" y="-55.30000000000001" as="targetPoint" />
          </mxGeometry>
        </mxCell>
        <mxCell id="AM_hhl6KOl27GlRnKCL_-153" value="" style="endArrow=none;dashed=1;html=1;rounded=0;" parent="1" edge="1">
          <mxGeometry width="50" height="50" relative="1" as="geometry">
            <mxPoint x="496.34999999999997" y="-46.80000000000001" as="sourcePoint" />
            <mxPoint x="576.3499999999999" y="-46.80000000000001" as="targetPoint" />
          </mxGeometry>
        </mxCell>
        <mxCell id="AM_hhl6KOl27GlRnKCL_-162" value="" style="rounded=0;whiteSpace=wrap;html=1;fillColor=none;" parent="1" vertex="1">
          <mxGeometry x="482.93" y="-75.30000000000001" width="114.08" height="105.3" as="geometry" />
        </mxCell>
        <mxCell id="AM_hhl6KOl27GlRnKCL_-396" style="edgeStyle=orthogonalEdgeStyle;rounded=0;orthogonalLoop=1;jettySize=auto;html=1;exitX=0.5;exitY=1;exitDx=0;exitDy=0;entryX=0.5;entryY=0;entryDx=0;entryDy=0;endSize=2;" parent="1" source="AM_hhl6KOl27GlRnKCL_-163" target="AM_hhl6KOl27GlRnKCL_-284" edge="1">
          <mxGeometry relative="1" as="geometry" />
        </mxCell>
        <mxCell id="AM_hhl6KOl27GlRnKCL_-163" value="&lt;font style=&quot;font-size: 9px;&quot;&gt;Model Comparison&lt;/font&gt;" style="text;html=1;strokeColor=none;fillColor=none;align=center;verticalAlign=middle;whiteSpace=wrap;rounded=0;" parent="1" vertex="1">
          <mxGeometry x="490.42999999999995" y="29.999999999999996" width="100" height="20" as="geometry" />
        </mxCell>
        <mxCell id="AM_hhl6KOl27GlRnKCL_-168" style="edgeStyle=orthogonalEdgeStyle;rounded=0;orthogonalLoop=1;jettySize=auto;html=1;exitX=0.5;exitY=1;exitDx=0;exitDy=0;entryX=0.5;entryY=0;entryDx=0;entryDy=0;endSize=2;" parent="1" source="AM_hhl6KOl27GlRnKCL_-165" target="AM_hhl6KOl27GlRnKCL_-162" edge="1">
          <mxGeometry relative="1" as="geometry">
            <Array as="points">
              <mxPoint x="489.13" y="-90.19" />
              <mxPoint x="540.13" y="-90.19" />
            </Array>
          </mxGeometry>
        </mxCell>
        <mxCell id="AM_hhl6KOl27GlRnKCL_-165" value="&lt;font style=&quot;font-size: 9px;&quot;&gt;Model 1&lt;/font&gt;" style="rounded=0;whiteSpace=wrap;html=1;" parent="1" vertex="1">
          <mxGeometry x="469.96999999999997" y="-130.19" width="39.16" height="20" as="geometry" />
        </mxCell>
        <mxCell id="AM_hhl6KOl27GlRnKCL_-170" style="edgeStyle=orthogonalEdgeStyle;rounded=0;orthogonalLoop=1;jettySize=auto;html=1;exitX=0.5;exitY=1;exitDx=0;exitDy=0;entryX=0.5;entryY=0;entryDx=0;entryDy=0;endSize=2;" parent="1" edge="1">
          <mxGeometry relative="1" as="geometry">
            <mxPoint x="538.55" y="-110.19" as="sourcePoint" />
            <mxPoint x="539.9699999999999" y="-75.30000000000013" as="targetPoint" />
          </mxGeometry>
        </mxCell>
        <mxCell id="AM_hhl6KOl27GlRnKCL_-166" value="&lt;font style=&quot;font-size: 9px;&quot;&gt;Model ...&lt;/font&gt;" style="rounded=0;whiteSpace=wrap;html=1;" parent="1" vertex="1">
          <mxGeometry x="519.97" y="-130.19" width="39.16" height="20" as="geometry" />
        </mxCell>
        <mxCell id="AM_hhl6KOl27GlRnKCL_-171" style="edgeStyle=orthogonalEdgeStyle;rounded=0;orthogonalLoop=1;jettySize=auto;html=1;exitX=0.5;exitY=1;exitDx=0;exitDy=0;entryX=0.5;entryY=0;entryDx=0;entryDy=0;endSize=2;" parent="1" source="AM_hhl6KOl27GlRnKCL_-167" target="AM_hhl6KOl27GlRnKCL_-162" edge="1">
          <mxGeometry relative="1" as="geometry">
            <Array as="points">
              <mxPoint x="590.13" y="-90.19" />
              <mxPoint x="540.13" y="-90.19" />
            </Array>
          </mxGeometry>
        </mxCell>
        <mxCell id="AM_hhl6KOl27GlRnKCL_-167" value="&lt;font style=&quot;font-size: 9px;&quot;&gt;Model N&lt;/font&gt;" style="rounded=0;whiteSpace=wrap;html=1;" parent="1" vertex="1">
          <mxGeometry x="570.81" y="-130.19" width="39.16" height="20" as="geometry" />
        </mxCell>
        <mxCell id="AM_hhl6KOl27GlRnKCL_-279" style="edgeStyle=orthogonalEdgeStyle;rounded=0;orthogonalLoop=1;jettySize=auto;html=1;exitX=0.5;exitY=1;exitDx=0;exitDy=0;entryX=0.5;entryY=0;entryDx=0;entryDy=0;endSize=2;" parent="1" source="AM_hhl6KOl27GlRnKCL_-223" target="AM_hhl6KOl27GlRnKCL_-100" edge="1">
          <mxGeometry relative="1" as="geometry">
            <Array as="points">
              <mxPoint x="573" y="-310" />
              <mxPoint x="540" y="-310" />
            </Array>
          </mxGeometry>
        </mxCell>
        <mxCell id="AM_hhl6KOl27GlRnKCL_-280" style="edgeStyle=orthogonalEdgeStyle;rounded=0;orthogonalLoop=1;jettySize=auto;html=1;exitX=0.5;exitY=1;exitDx=0;exitDy=0;entryX=0.5;entryY=0;entryDx=0;entryDy=0;endSize=2;" parent="1" source="AM_hhl6KOl27GlRnKCL_-223" target="AM_hhl6KOl27GlRnKCL_-107" edge="1">
          <mxGeometry relative="1" as="geometry">
            <Array as="points">
              <mxPoint x="573" y="-310" />
              <mxPoint x="605" y="-310" />
            </Array>
          </mxGeometry>
        </mxCell>
        <mxCell id="AM_hhl6KOl27GlRnKCL_-223" value="&lt;font style=&quot;font-size: 8px;&quot;&gt;Level ...&lt;/font&gt;" style="rounded=0;whiteSpace=wrap;html=1;" parent="1" vertex="1">
          <mxGeometry x="547.81" y="-332.84" width="50" height="20" as="geometry" />
        </mxCell>
        <mxCell id="AM_hhl6KOl27GlRnKCL_-224" style="edgeStyle=elbowEdgeStyle;rounded=0;orthogonalLoop=1;jettySize=auto;html=1;exitX=0.5;exitY=1;exitDx=0;exitDy=0;endSize=1;elbow=vertical;" parent="1" source="AM_hhl6KOl27GlRnKCL_-225" target="AM_hhl6KOl27GlRnKCL_-228" edge="1">
          <mxGeometry relative="1" as="geometry">
            <mxPoint x="453.97" y="-250.84" as="targetPoint" />
            <Array as="points">
              <mxPoint x="458.97" y="-267.84" />
            </Array>
          </mxGeometry>
        </mxCell>
        <mxCell id="AM_hhl6KOl27GlRnKCL_-225" value="&lt;font style=&quot;font-size: 9px;&quot;&gt;Level N&lt;/font&gt;" style="rounded=0;whiteSpace=wrap;html=1;" parent="1" vertex="1">
          <mxGeometry x="448.97" y="-297.84" width="50" height="20" as="geometry" />
        </mxCell>
        <mxCell id="AM_hhl6KOl27GlRnKCL_-226" style="edgeStyle=elbowEdgeStyle;rounded=0;orthogonalLoop=1;jettySize=auto;html=1;exitX=0.5;exitY=1;exitDx=0;exitDy=0;endSize=1;elbow=vertical;" parent="1" source="AM_hhl6KOl27GlRnKCL_-225" target="AM_hhl6KOl27GlRnKCL_-229" edge="1">
          <mxGeometry relative="1" as="geometry">
            <mxPoint x="483.97" y="-270.84" as="sourcePoint" />
            <mxPoint x="474.1600000000001" y="-253.54000000000005" as="targetPoint" />
          </mxGeometry>
        </mxCell>
        <mxCell id="AM_hhl6KOl27GlRnKCL_-227" style="edgeStyle=elbowEdgeStyle;rounded=0;orthogonalLoop=1;jettySize=auto;html=1;exitX=0.5;exitY=1;exitDx=0;exitDy=0;endSize=1;elbow=vertical;" parent="1" source="AM_hhl6KOl27GlRnKCL_-225" target="AM_hhl6KOl27GlRnKCL_-230" edge="1">
          <mxGeometry relative="1" as="geometry">
            <mxPoint x="483.97" y="-270.84" as="sourcePoint" />
            <mxPoint x="494.1600000000001" y="-255.03000000000006" as="targetPoint" />
            <Array as="points">
              <mxPoint x="488.97" y="-267.84" />
            </Array>
          </mxGeometry>
        </mxCell>
        <mxCell id="AM_hhl6KOl27GlRnKCL_-228" value="" style="sketch=0;pointerEvents=1;shadow=0;dashed=0;html=1;strokeColor=none;fillColor=#505050;labelPosition=center;verticalLabelPosition=bottom;verticalAlign=top;outlineConnect=0;align=center;shape=mxgraph.office.concepts.home;" parent="1" vertex="1">
          <mxGeometry x="449.47" y="-257.84" width="8" height="8" as="geometry" />
        </mxCell>
        <mxCell id="AM_hhl6KOl27GlRnKCL_-229" value="" style="sketch=0;pointerEvents=1;shadow=0;dashed=0;html=1;strokeColor=none;fillColor=#505050;labelPosition=center;verticalLabelPosition=bottom;verticalAlign=top;outlineConnect=0;align=center;shape=mxgraph.office.concepts.home;" parent="1" vertex="1">
          <mxGeometry x="469.97" y="-257.84" width="8" height="8" as="geometry" />
        </mxCell>
        <mxCell id="AM_hhl6KOl27GlRnKCL_-230" value="" style="sketch=0;pointerEvents=1;shadow=0;dashed=0;html=1;strokeColor=none;fillColor=#505050;labelPosition=center;verticalLabelPosition=bottom;verticalAlign=top;outlineConnect=0;align=center;shape=mxgraph.office.concepts.home;" parent="1" vertex="1">
          <mxGeometry x="490.47" y="-257.84" width="8" height="8" as="geometry" />
        </mxCell>
        <mxCell id="AM_hhl6KOl27GlRnKCL_-278" style="edgeStyle=orthogonalEdgeStyle;rounded=0;orthogonalLoop=1;jettySize=auto;html=1;exitX=0.5;exitY=1;exitDx=0;exitDy=0;entryX=0.5;entryY=0;entryDx=0;entryDy=0;endSize=2;" parent="1" source="AM_hhl6KOl27GlRnKCL_-231" target="AM_hhl6KOl27GlRnKCL_-225" edge="1">
          <mxGeometry relative="1" as="geometry">
            <Array as="points">
              <mxPoint x="504" y="-310" />
              <mxPoint x="474" y="-310" />
            </Array>
          </mxGeometry>
        </mxCell>
        <mxCell id="AM_hhl6KOl27GlRnKCL_-231" value="&lt;font style=&quot;font-size: 8px;&quot;&gt;Level ...&lt;/font&gt;" style="rounded=0;whiteSpace=wrap;html=1;" parent="1" vertex="1">
          <mxGeometry x="478.97" y="-332.84" width="50" height="20" as="geometry" />
        </mxCell>
        <mxCell id="AM_hhl6KOl27GlRnKCL_-240" style="edgeStyle=orthogonalEdgeStyle;rounded=0;orthogonalLoop=1;jettySize=auto;html=1;exitX=1;exitY=0.5;exitDx=0;exitDy=0;entryX=1;entryY=0.5;entryDx=0;entryDy=0;" parent="1" source="AM_hhl6KOl27GlRnKCL_-237" target="AM_hhl6KOl27GlRnKCL_-238" edge="1">
          <mxGeometry relative="1" as="geometry">
            <Array as="points">
              <mxPoint x="658.97" y="-187.84" />
              <mxPoint x="658.97" y="-307.84" />
            </Array>
          </mxGeometry>
        </mxCell>
        <mxCell id="AM_hhl6KOl27GlRnKCL_-241" style="edgeStyle=orthogonalEdgeStyle;rounded=0;orthogonalLoop=1;jettySize=auto;html=1;exitX=0.5;exitY=1;exitDx=0;exitDy=0;entryX=0.5;entryY=0;entryDx=0;entryDy=0;endSize=2;" parent="1" source="AM_hhl6KOl27GlRnKCL_-237" target="AM_hhl6KOl27GlRnKCL_-165" edge="1">
          <mxGeometry relative="1" as="geometry" />
        </mxCell>
        <mxCell id="AM_hhl6KOl27GlRnKCL_-242" style="edgeStyle=orthogonalEdgeStyle;rounded=0;orthogonalLoop=1;jettySize=auto;html=1;exitX=0.5;exitY=1;exitDx=0;exitDy=0;entryX=0.5;entryY=0;entryDx=0;entryDy=0;endSize=2;" parent="1" source="AM_hhl6KOl27GlRnKCL_-237" target="AM_hhl6KOl27GlRnKCL_-167" edge="1">
          <mxGeometry relative="1" as="geometry" />
        </mxCell>
        <mxCell id="VWjmf2oVI-1djjmRjwwf-1" style="edgeStyle=orthogonalEdgeStyle;rounded=0;orthogonalLoop=1;jettySize=auto;html=1;exitX=0.5;exitY=1;exitDx=0;exitDy=0;entryX=0.5;entryY=0;entryDx=0;entryDy=0;" parent="1" source="AM_hhl6KOl27GlRnKCL_-237" target="AM_hhl6KOl27GlRnKCL_-166" edge="1">
          <mxGeometry relative="1" as="geometry" />
        </mxCell>
        <mxCell id="AM_hhl6KOl27GlRnKCL_-237" value="" style="shape=image;html=1;verticalAlign=top;verticalLabelPosition=bottom;labelBackgroundColor=#ffffff;imageAspect=0;aspect=fixed;image=https://cdn3.iconfinder.com/data/icons/music-player-controls/100/music_shuffle_player_mix_arrows-128.png;clipPath=inset(24.22% 10.94% 20.31% 10.94%);" parent="1" vertex="1">
          <mxGeometry x="523.0500000000001" y="-200" width="34.84" height="24.736400000000003" as="geometry" />
        </mxCell>
        <mxCell id="AM_hhl6KOl27GlRnKCL_-246" style="edgeStyle=elbowEdgeStyle;rounded=0;orthogonalLoop=1;jettySize=auto;html=1;exitX=0.5;exitY=1;exitDx=0;exitDy=0;endSize=1;elbow=vertical;" parent="1" source="AM_hhl6KOl27GlRnKCL_-247" target="AM_hhl6KOl27GlRnKCL_-257" edge="1">
          <mxGeometry relative="1" as="geometry">
            <mxPoint x="519.03" y="156.99999999999997" as="targetPoint" />
            <Array as="points">
              <mxPoint x="524.03" y="140" />
            </Array>
          </mxGeometry>
        </mxCell>
        <mxCell id="AM_hhl6KOl27GlRnKCL_-247" value="&lt;font style=&quot;font-size: 9px;&quot;&gt;Level N&lt;/font&gt;" style="rounded=0;whiteSpace=wrap;html=1;" parent="1" vertex="1">
          <mxGeometry x="514.03" y="110" width="50" height="20" as="geometry" />
        </mxCell>
        <mxCell id="AM_hhl6KOl27GlRnKCL_-248" value="&lt;font size=&quot;1&quot;&gt;Level N&lt;/font&gt;" style="rounded=0;whiteSpace=wrap;html=1;" parent="1" vertex="1">
          <mxGeometry x="578.91" y="110" width="50" height="20" as="geometry" />
        </mxCell>
        <mxCell id="AM_hhl6KOl27GlRnKCL_-281" style="edgeStyle=orthogonalEdgeStyle;rounded=0;orthogonalLoop=1;jettySize=auto;html=1;exitX=0.5;exitY=1;exitDx=0;exitDy=0;entryX=0.5;entryY=0;entryDx=0;entryDy=0;endSize=2;" parent="1" source="AM_hhl6KOl27GlRnKCL_-251" target="AM_hhl6KOl27GlRnKCL_-267" edge="1">
          <mxGeometry relative="1" as="geometry">
            <Array as="points">
              <mxPoint x="539" y="100" />
              <mxPoint x="473" y="100" />
            </Array>
          </mxGeometry>
        </mxCell>
        <mxCell id="AM_hhl6KOl27GlRnKCL_-282" style="edgeStyle=orthogonalEdgeStyle;rounded=0;orthogonalLoop=1;jettySize=auto;html=1;exitX=0.5;exitY=1;exitDx=0;exitDy=0;entryX=0.5;entryY=0;entryDx=0;entryDy=0;endSize=2;" parent="1" source="AM_hhl6KOl27GlRnKCL_-251" target="AM_hhl6KOl27GlRnKCL_-247" edge="1">
          <mxGeometry relative="1" as="geometry" />
        </mxCell>
        <mxCell id="AM_hhl6KOl27GlRnKCL_-283" style="edgeStyle=orthogonalEdgeStyle;rounded=0;orthogonalLoop=1;jettySize=auto;html=1;exitX=0.5;exitY=1;exitDx=0;exitDy=0;entryX=0.5;entryY=0;entryDx=0;entryDy=0;endSize=2;" parent="1" source="AM_hhl6KOl27GlRnKCL_-251" target="AM_hhl6KOl27GlRnKCL_-248" edge="1">
          <mxGeometry relative="1" as="geometry">
            <Array as="points">
              <mxPoint x="539" y="100" />
              <mxPoint x="604" y="100" />
            </Array>
          </mxGeometry>
        </mxCell>
        <mxCell id="AM_hhl6KOl27GlRnKCL_-251" value="&lt;font style=&quot;font-size: 8px;&quot;&gt;Level 1&lt;/font&gt;" style="rounded=0;whiteSpace=wrap;html=1;" parent="1" vertex="1">
          <mxGeometry x="513.5500000000001" y="70" width="50" height="20" as="geometry" />
        </mxCell>
        <mxCell id="AM_hhl6KOl27GlRnKCL_-252" style="edgeStyle=elbowEdgeStyle;rounded=0;orthogonalLoop=1;jettySize=auto;html=1;exitX=0.5;exitY=1;exitDx=0;exitDy=0;endSize=1;elbow=vertical;" parent="1" source="AM_hhl6KOl27GlRnKCL_-247" target="AM_hhl6KOl27GlRnKCL_-258" edge="1">
          <mxGeometry relative="1" as="geometry">
            <mxPoint x="549.03" y="137" as="sourcePoint" />
            <mxPoint x="539.22" y="154.29999999999993" as="targetPoint" />
          </mxGeometry>
        </mxCell>
        <mxCell id="AM_hhl6KOl27GlRnKCL_-253" style="edgeStyle=elbowEdgeStyle;rounded=0;orthogonalLoop=1;jettySize=auto;html=1;exitX=0.5;exitY=1;exitDx=0;exitDy=0;endSize=1;elbow=vertical;" parent="1" source="AM_hhl6KOl27GlRnKCL_-247" target="AM_hhl6KOl27GlRnKCL_-259" edge="1">
          <mxGeometry relative="1" as="geometry">
            <mxPoint x="549.03" y="137" as="sourcePoint" />
            <mxPoint x="559.22" y="152.80999999999992" as="targetPoint" />
            <Array as="points">
              <mxPoint x="554.03" y="140" />
            </Array>
          </mxGeometry>
        </mxCell>
        <mxCell id="AM_hhl6KOl27GlRnKCL_-254" style="edgeStyle=elbowEdgeStyle;rounded=0;orthogonalLoop=1;jettySize=auto;html=1;exitX=0.5;exitY=1;exitDx=0;exitDy=0;endSize=1;elbow=vertical;" parent="1" source="AM_hhl6KOl27GlRnKCL_-248" target="AM_hhl6KOl27GlRnKCL_-260" edge="1">
          <mxGeometry relative="1" as="geometry">
            <mxPoint x="553.91" y="147" as="sourcePoint" />
            <mxPoint x="583.3799999999999" y="155.23999999999998" as="targetPoint" />
            <Array as="points">
              <mxPoint x="588.91" y="140" />
            </Array>
          </mxGeometry>
        </mxCell>
        <mxCell id="AM_hhl6KOl27GlRnKCL_-255" style="edgeStyle=elbowEdgeStyle;rounded=0;orthogonalLoop=1;jettySize=auto;html=1;exitX=0.5;exitY=1;exitDx=0;exitDy=0;endSize=1;elbow=vertical;" parent="1" source="AM_hhl6KOl27GlRnKCL_-248" target="AM_hhl6KOl27GlRnKCL_-261" edge="1">
          <mxGeometry relative="1" as="geometry">
            <mxPoint x="563.91" y="156.99999999999997" as="sourcePoint" />
            <mxPoint x="603.7900000000001" y="153.20000000000002" as="targetPoint" />
          </mxGeometry>
        </mxCell>
        <mxCell id="AM_hhl6KOl27GlRnKCL_-256" style="edgeStyle=elbowEdgeStyle;rounded=0;orthogonalLoop=1;jettySize=auto;html=1;exitX=0.5;exitY=1;exitDx=0;exitDy=0;endSize=1;elbow=vertical;" parent="1" source="AM_hhl6KOl27GlRnKCL_-248" target="AM_hhl6KOl27GlRnKCL_-262" edge="1">
          <mxGeometry relative="1" as="geometry">
            <mxPoint x="613.9100000000001" y="137" as="sourcePoint" />
            <mxPoint x="623.38" y="155.23999999999998" as="targetPoint" />
            <Array as="points">
              <mxPoint x="608.91" y="140" />
            </Array>
          </mxGeometry>
        </mxCell>
        <mxCell id="AM_hhl6KOl27GlRnKCL_-257" value="" style="sketch=0;pointerEvents=1;shadow=0;dashed=0;html=1;strokeColor=none;fillColor=#505050;labelPosition=center;verticalLabelPosition=bottom;verticalAlign=top;outlineConnect=0;align=center;shape=mxgraph.office.concepts.home;" parent="1" vertex="1">
          <mxGeometry x="514.53" y="150" width="8" height="8" as="geometry" />
        </mxCell>
        <mxCell id="AM_hhl6KOl27GlRnKCL_-258" value="" style="sketch=0;pointerEvents=1;shadow=0;dashed=0;html=1;strokeColor=none;fillColor=#505050;labelPosition=center;verticalLabelPosition=bottom;verticalAlign=top;outlineConnect=0;align=center;shape=mxgraph.office.concepts.home;" parent="1" vertex="1">
          <mxGeometry x="535.03" y="150" width="8" height="8" as="geometry" />
        </mxCell>
        <mxCell id="AM_hhl6KOl27GlRnKCL_-259" value="" style="sketch=0;pointerEvents=1;shadow=0;dashed=0;html=1;strokeColor=none;fillColor=#505050;labelPosition=center;verticalLabelPosition=bottom;verticalAlign=top;outlineConnect=0;align=center;shape=mxgraph.office.concepts.home;" parent="1" vertex="1">
          <mxGeometry x="554.41" y="150" width="8" height="8" as="geometry" />
        </mxCell>
        <mxCell id="AM_hhl6KOl27GlRnKCL_-260" value="" style="sketch=0;pointerEvents=1;shadow=0;dashed=0;html=1;strokeColor=none;fillColor=#505050;labelPosition=center;verticalLabelPosition=bottom;verticalAlign=top;outlineConnect=0;align=center;shape=mxgraph.office.concepts.home;" parent="1" vertex="1">
          <mxGeometry x="579.41" y="150" width="8" height="8" as="geometry" />
        </mxCell>
        <mxCell id="AM_hhl6KOl27GlRnKCL_-261" value="" style="sketch=0;pointerEvents=1;shadow=0;dashed=0;html=1;strokeColor=none;fillColor=#505050;labelPosition=center;verticalLabelPosition=bottom;verticalAlign=top;outlineConnect=0;align=center;shape=mxgraph.office.concepts.home;" parent="1" vertex="1">
          <mxGeometry x="599.91" y="150" width="8" height="8" as="geometry" />
        </mxCell>
        <mxCell id="AM_hhl6KOl27GlRnKCL_-262" value="" style="sketch=0;pointerEvents=1;shadow=0;dashed=0;html=1;strokeColor=none;fillColor=#505050;labelPosition=center;verticalLabelPosition=bottom;verticalAlign=top;outlineConnect=0;align=center;shape=mxgraph.office.concepts.home;" parent="1" vertex="1">
          <mxGeometry x="620.4100000000001" y="150" width="8" height="8" as="geometry" />
        </mxCell>
        <mxCell id="AM_hhl6KOl27GlRnKCL_-266" style="edgeStyle=elbowEdgeStyle;rounded=0;orthogonalLoop=1;jettySize=auto;html=1;exitX=0.5;exitY=1;exitDx=0;exitDy=0;endSize=1;elbow=vertical;" parent="1" source="AM_hhl6KOl27GlRnKCL_-267" target="AM_hhl6KOl27GlRnKCL_-270" edge="1">
          <mxGeometry relative="1" as="geometry">
            <mxPoint x="453.19000000000005" y="156.99999999999997" as="targetPoint" />
            <Array as="points">
              <mxPoint x="458.19000000000005" y="140" />
            </Array>
          </mxGeometry>
        </mxCell>
        <mxCell id="AM_hhl6KOl27GlRnKCL_-267" value="&lt;font style=&quot;font-size: 9px;&quot;&gt;Level N&lt;/font&gt;" style="rounded=0;whiteSpace=wrap;html=1;" parent="1" vertex="1">
          <mxGeometry x="448.19000000000005" y="110" width="50" height="20" as="geometry" />
        </mxCell>
        <mxCell id="AM_hhl6KOl27GlRnKCL_-268" style="edgeStyle=elbowEdgeStyle;rounded=0;orthogonalLoop=1;jettySize=auto;html=1;exitX=0.5;exitY=1;exitDx=0;exitDy=0;endSize=1;elbow=vertical;" parent="1" source="AM_hhl6KOl27GlRnKCL_-267" target="AM_hhl6KOl27GlRnKCL_-271" edge="1">
          <mxGeometry relative="1" as="geometry">
            <mxPoint x="483.19000000000005" y="137" as="sourcePoint" />
            <mxPoint x="473.3800000000001" y="154.29999999999993" as="targetPoint" />
          </mxGeometry>
        </mxCell>
        <mxCell id="AM_hhl6KOl27GlRnKCL_-269" style="edgeStyle=elbowEdgeStyle;rounded=0;orthogonalLoop=1;jettySize=auto;html=1;exitX=0.5;exitY=1;exitDx=0;exitDy=0;endSize=1;elbow=vertical;" parent="1" source="AM_hhl6KOl27GlRnKCL_-267" target="AM_hhl6KOl27GlRnKCL_-272" edge="1">
          <mxGeometry relative="1" as="geometry">
            <mxPoint x="483.19000000000005" y="137" as="sourcePoint" />
            <mxPoint x="493.3800000000001" y="152.80999999999992" as="targetPoint" />
            <Array as="points">
              <mxPoint x="488.19000000000005" y="140" />
            </Array>
          </mxGeometry>
        </mxCell>
        <mxCell id="AM_hhl6KOl27GlRnKCL_-270" value="" style="sketch=0;pointerEvents=1;shadow=0;dashed=0;html=1;strokeColor=none;fillColor=#505050;labelPosition=center;verticalLabelPosition=bottom;verticalAlign=top;outlineConnect=0;align=center;shape=mxgraph.office.concepts.home;" parent="1" vertex="1">
          <mxGeometry x="448.69000000000005" y="150" width="8" height="8" as="geometry" />
        </mxCell>
        <mxCell id="AM_hhl6KOl27GlRnKCL_-271" value="" style="sketch=0;pointerEvents=1;shadow=0;dashed=0;html=1;strokeColor=none;fillColor=#505050;labelPosition=center;verticalLabelPosition=bottom;verticalAlign=top;outlineConnect=0;align=center;shape=mxgraph.office.concepts.home;" parent="1" vertex="1">
          <mxGeometry x="469.19000000000005" y="150" width="8" height="8" as="geometry" />
        </mxCell>
        <mxCell id="AM_hhl6KOl27GlRnKCL_-272" value="" style="sketch=0;pointerEvents=1;shadow=0;dashed=0;html=1;strokeColor=none;fillColor=#505050;labelPosition=center;verticalLabelPosition=bottom;verticalAlign=top;outlineConnect=0;align=center;shape=mxgraph.office.concepts.home;" parent="1" vertex="1">
          <mxGeometry x="489.69000000000005" y="150" width="8" height="8" as="geometry" />
        </mxCell>
        <mxCell id="AM_hhl6KOl27GlRnKCL_-389" style="edgeStyle=orthogonalEdgeStyle;rounded=0;orthogonalLoop=1;jettySize=auto;html=1;exitX=0.5;exitY=1;exitDx=0;exitDy=0;entryX=0.5;entryY=0;entryDx=0;entryDy=0;endSize=2;" parent="1" source="AM_hhl6KOl27GlRnKCL_-286" target="AM_hhl6KOl27GlRnKCL_-386" edge="1">
          <mxGeometry relative="1" as="geometry" />
        </mxCell>
        <mxCell id="AM_hhl6KOl27GlRnKCL_-390" style="edgeStyle=orthogonalEdgeStyle;rounded=0;orthogonalLoop=1;jettySize=auto;html=1;exitX=0.5;exitY=1;exitDx=0;exitDy=0;entryX=0.5;entryY=0;entryDx=0;entryDy=0;endSize=2;" parent="1" source="AM_hhl6KOl27GlRnKCL_-286" target="AM_hhl6KOl27GlRnKCL_-387" edge="1">
          <mxGeometry relative="1" as="geometry" />
        </mxCell>
        <mxCell id="AM_hhl6KOl27GlRnKCL_-286" value="" style="rounded=0;whiteSpace=wrap;html=1;fillColor=none;" parent="1" vertex="1">
          <mxGeometry x="802.23" y="-192.5" width="140" height="80" as="geometry" />
        </mxCell>
        <mxCell id="AM_hhl6KOl27GlRnKCL_-367" value="&lt;font style=&quot;font-size: 10px;&quot;&gt;y = β&lt;sub&gt;0&lt;/sub&gt;&amp;nbsp;+&lt;sub style=&quot;border-color: var(--border-color);&quot;&gt;&amp;nbsp;&lt;/sub&gt;β&lt;sub&gt;1&lt;/sub&gt;x&lt;sub style=&quot;&quot;&gt;1&lt;/sub&gt;&lt;/font&gt;" style="text;html=1;strokeColor=none;fillColor=none;align=center;verticalAlign=middle;whiteSpace=wrap;rounded=0;" parent="1" vertex="1">
          <mxGeometry x="837.23" y="-187.5" width="70" height="15" as="geometry" />
        </mxCell>
        <mxCell id="AM_hhl6KOl27GlRnKCL_-372" style="edgeStyle=orthogonalEdgeStyle;rounded=0;orthogonalLoop=1;jettySize=auto;html=1;exitX=0.5;exitY=1;exitDx=0;exitDy=0;entryX=0.5;entryY=0;entryDx=0;entryDy=0;endSize=2;" parent="1" source="AM_hhl6KOl27GlRnKCL_-369" target="AM_hhl6KOl27GlRnKCL_-370" edge="1">
          <mxGeometry relative="1" as="geometry" />
        </mxCell>
        <mxCell id="AM_hhl6KOl27GlRnKCL_-373" style="edgeStyle=orthogonalEdgeStyle;rounded=0;orthogonalLoop=1;jettySize=auto;html=1;exitX=0.5;exitY=1;exitDx=0;exitDy=0;entryX=0.5;entryY=0;entryDx=0;entryDy=0;endSize=2;" parent="1" source="AM_hhl6KOl27GlRnKCL_-369" target="AM_hhl6KOl27GlRnKCL_-371" edge="1">
          <mxGeometry relative="1" as="geometry" />
        </mxCell>
        <mxCell id="AM_hhl6KOl27GlRnKCL_-369" value="&lt;font style=&quot;font-size: 9px;&quot;&gt;Levels&lt;/font&gt;" style="rounded=0;whiteSpace=wrap;html=1;" parent="1" vertex="1">
          <mxGeometry x="852.23" y="-342.5" width="40" height="20" as="geometry" />
        </mxCell>
        <mxCell id="AM_hhl6KOl27GlRnKCL_-378" style="edgeStyle=orthogonalEdgeStyle;rounded=0;orthogonalLoop=1;jettySize=auto;html=1;exitX=0.5;exitY=1;exitDx=0;exitDy=0;entryX=0.5;entryY=0;entryDx=0;entryDy=0;endSize=2;" parent="1" source="AM_hhl6KOl27GlRnKCL_-370" target="AM_hhl6KOl27GlRnKCL_-286" edge="1">
          <mxGeometry relative="1" as="geometry">
            <mxPoint x="872.23" y="-202.5" as="targetPoint" />
          </mxGeometry>
        </mxCell>
        <mxCell id="AM_hhl6KOl27GlRnKCL_-370" value="&lt;font style=&quot;font-size: 9px;&quot;&gt;Fixed Effects&lt;/font&gt;" style="rounded=0;whiteSpace=wrap;html=1;" parent="1" vertex="1">
          <mxGeometry x="782.39" y="-282.5" width="69.84" height="20" as="geometry" />
        </mxCell>
        <mxCell id="AM_hhl6KOl27GlRnKCL_-379" style="edgeStyle=orthogonalEdgeStyle;rounded=0;orthogonalLoop=1;jettySize=auto;html=1;exitX=0.5;exitY=1;exitDx=0;exitDy=0;entryX=0.5;entryY=0;entryDx=0;entryDy=0;endSize=2;" parent="1" source="AM_hhl6KOl27GlRnKCL_-371" target="AM_hhl6KOl27GlRnKCL_-286" edge="1">
          <mxGeometry relative="1" as="geometry" />
        </mxCell>
        <mxCell id="AM_hhl6KOl27GlRnKCL_-371" value="&lt;font size=&quot;1&quot;&gt;Mixed Effects&lt;/font&gt;" style="rounded=0;whiteSpace=wrap;html=1;" parent="1" vertex="1">
          <mxGeometry x="892.23" y="-282.5" width="68.22" height="20" as="geometry" />
        </mxCell>
        <mxCell id="AM_hhl6KOl27GlRnKCL_-375" value="&lt;font style=&quot;font-size: 10px;&quot;&gt;y = β&lt;sub&gt;0&lt;/sub&gt;&amp;nbsp;+&lt;sub style=&quot;border-color: var(--border-color);&quot;&gt;&amp;nbsp;&lt;/sub&gt;β&lt;sub&gt;1&lt;/sub&gt;x&lt;sub&gt;1 &lt;/sub&gt;+&amp;nbsp;β&lt;sub&gt;2&lt;/sub&gt;x&lt;sub style=&quot;&quot;&gt;2&lt;/sub&gt;&lt;/font&gt;" style="text;html=1;strokeColor=none;fillColor=none;align=center;verticalAlign=middle;whiteSpace=wrap;rounded=0;" parent="1" vertex="1">
          <mxGeometry x="822.23" y="-169.66000000000003" width="100" height="30" as="geometry" />
        </mxCell>
        <mxCell id="AM_hhl6KOl27GlRnKCL_-377" value="&lt;font style=&quot;font-size: 10px;&quot;&gt;&lt;font style=&quot;font-size: 10px;&quot;&gt;y = β&lt;sub style=&quot;&quot;&gt;0&lt;/sub&gt;&amp;nbsp;&lt;font style=&quot;border-color: var(--border-color);&quot;&gt;+&lt;sub style=&quot;border-color: var(--border-color);&quot;&gt;&amp;nbsp;&lt;/sub&gt;β&lt;/font&gt;&lt;font style=&quot;border-color: var(--border-color);&quot;&gt;&lt;sub style=&quot;border-color: var(--border-color);&quot;&gt;1&lt;/sub&gt;x&lt;sub style=&quot;border-color: var(--border-color);&quot;&gt;1&amp;nbsp;&lt;/sub&gt;&lt;/font&gt;+&lt;sub style=&quot;border-color: var(--border-color);&quot;&gt;&amp;nbsp;&lt;/sub&gt;β&lt;/font&gt;&lt;font style=&quot;font-size: 10px;&quot;&gt;&lt;sub&gt;...&lt;/sub&gt;x&lt;sub&gt;...&lt;/sub&gt;&lt;sub style=&quot;&quot;&gt;&amp;nbsp;&lt;/sub&gt;+&amp;nbsp;β&lt;sub style=&quot;&quot;&gt;2&lt;/sub&gt;x&lt;sub style=&quot;&quot;&gt;2&lt;/sub&gt;&lt;/font&gt;&lt;/font&gt;" style="text;html=1;strokeColor=none;fillColor=none;align=center;verticalAlign=middle;whiteSpace=wrap;rounded=0;" parent="1" vertex="1">
          <mxGeometry x="802.23" y="-139.66000000000003" width="140" height="17.16" as="geometry" />
        </mxCell>
        <mxCell id="AM_hhl6KOl27GlRnKCL_-382" style="edgeStyle=orthogonalEdgeStyle;rounded=0;orthogonalLoop=1;jettySize=auto;html=1;exitX=0.5;exitY=1;exitDx=0;exitDy=0;entryX=0.5;entryY=0;entryDx=0;entryDy=0;endSize=2;" parent="1" source="AM_hhl6KOl27GlRnKCL_-380" target="AM_hhl6KOl27GlRnKCL_-237" edge="1">
          <mxGeometry relative="1" as="geometry" />
        </mxCell>
        <mxCell id="AM_hhl6KOl27GlRnKCL_-380" value="&lt;font style=&quot;font-size: 9px;&quot;&gt;Intercept Only Models&lt;br&gt;&lt;/font&gt;" style="text;html=1;strokeColor=none;fillColor=none;align=center;verticalAlign=middle;whiteSpace=wrap;rounded=0;" parent="1" vertex="1">
          <mxGeometry x="490.47" y="-237.84" width="100" height="17.84" as="geometry" />
        </mxCell>
        <mxCell id="AM_hhl6KOl27GlRnKCL_-398" style="edgeStyle=orthogonalEdgeStyle;rounded=0;orthogonalLoop=1;jettySize=auto;html=1;exitX=0.5;exitY=1;exitDx=0;exitDy=0;entryX=0.5;entryY=0;entryDx=0;entryDy=0;" parent="1" source="AM_hhl6KOl27GlRnKCL_-383" target="AM_hhl6KOl27GlRnKCL_-384" edge="1">
          <mxGeometry relative="1" as="geometry" />
        </mxCell>
        <mxCell id="AM_hhl6KOl27GlRnKCL_-383" value="1. Data Preparation" style="swimlane;whiteSpace=wrap;html=1;" parent="1" vertex="1">
          <mxGeometry x="100.15" y="-237.84" width="249.85" height="490" as="geometry" />
        </mxCell>
        <mxCell id="AM_hhl6KOl27GlRnKCL_-37" value="" style="rounded=0;whiteSpace=wrap;html=1;fillColor=none;" parent="AM_hhl6KOl27GlRnKCL_-383" vertex="1">
          <mxGeometry x="19.84999999999998" y="383.89" width="205.71" height="80" as="geometry" />
        </mxCell>
        <mxCell id="AM_hhl6KOl27GlRnKCL_-21" value="" style="endArrow=classic;html=1;rounded=0;endSize=1;" parent="AM_hhl6KOl27GlRnKCL_-383" edge="1">
          <mxGeometry width="50" height="50" relative="1" as="geometry">
            <mxPoint x="155.55999999999997" y="454.08" as="sourcePoint" />
            <mxPoint x="155.55999999999997" y="394.08" as="targetPoint" />
          </mxGeometry>
        </mxCell>
        <mxCell id="AM_hhl6KOl27GlRnKCL_-22" value="" style="endArrow=classic;html=1;rounded=0;startSize=6;endSize=1;" parent="AM_hhl6KOl27GlRnKCL_-383" edge="1">
          <mxGeometry width="50" height="50" relative="1" as="geometry">
            <mxPoint x="155.55999999999997" y="454.08" as="sourcePoint" />
            <mxPoint x="215.55999999999997" y="454.08" as="targetPoint" />
          </mxGeometry>
        </mxCell>
        <mxCell id="AM_hhl6KOl27GlRnKCL_-23" value="" style="rounded=0;whiteSpace=wrap;html=1;" parent="AM_hhl6KOl27GlRnKCL_-383" vertex="1">
          <mxGeometry x="164.12999999999997" y="444.08" width="8.57" height="10" as="geometry" />
        </mxCell>
        <mxCell id="AM_hhl6KOl27GlRnKCL_-24" value="" style="rounded=0;whiteSpace=wrap;html=1;" parent="AM_hhl6KOl27GlRnKCL_-383" vertex="1">
          <mxGeometry x="172.69999999999996" y="434.08" width="8.57" height="20" as="geometry" />
        </mxCell>
        <mxCell id="AM_hhl6KOl27GlRnKCL_-25" value="" style="rounded=0;whiteSpace=wrap;html=1;" parent="AM_hhl6KOl27GlRnKCL_-383" vertex="1">
          <mxGeometry x="181.26999999999995" y="414.08" width="8.57" height="40" as="geometry" />
        </mxCell>
        <mxCell id="AM_hhl6KOl27GlRnKCL_-26" value="" style="rounded=0;whiteSpace=wrap;html=1;" parent="AM_hhl6KOl27GlRnKCL_-383" vertex="1">
          <mxGeometry x="189.85" y="434.08" width="8.57" height="20" as="geometry" />
        </mxCell>
        <mxCell id="AM_hhl6KOl27GlRnKCL_-27" value="" style="rounded=0;whiteSpace=wrap;html=1;" parent="AM_hhl6KOl27GlRnKCL_-383" vertex="1">
          <mxGeometry x="198.42" y="444.08" width="8.57" height="10" as="geometry" />
        </mxCell>
        <mxCell id="AM_hhl6KOl27GlRnKCL_-28" value="" style="endArrow=classic;html=1;rounded=0;endSize=1;" parent="AM_hhl6KOl27GlRnKCL_-383" edge="1">
          <mxGeometry width="50" height="50" relative="1" as="geometry">
            <mxPoint x="29.849999999999994" y="453.7" as="sourcePoint" />
            <mxPoint x="29.849999999999994" y="393.7" as="targetPoint" />
          </mxGeometry>
        </mxCell>
        <mxCell id="AM_hhl6KOl27GlRnKCL_-29" value="" style="endArrow=classic;html=1;rounded=0;startSize=6;endSize=1;" parent="AM_hhl6KOl27GlRnKCL_-383" edge="1">
          <mxGeometry width="50" height="50" relative="1" as="geometry">
            <mxPoint x="29.849999999999994" y="453.7" as="sourcePoint" />
            <mxPoint x="89.85" y="453.7" as="targetPoint" />
          </mxGeometry>
        </mxCell>
        <mxCell id="AM_hhl6KOl27GlRnKCL_-30" value="" style="rounded=0;whiteSpace=wrap;html=1;" parent="AM_hhl6KOl27GlRnKCL_-383" vertex="1">
          <mxGeometry x="38.41999999999999" y="424.08" width="11.43" height="29.62" as="geometry" />
        </mxCell>
        <mxCell id="AM_hhl6KOl27GlRnKCL_-31" value="" style="rounded=0;whiteSpace=wrap;html=1;" parent="AM_hhl6KOl27GlRnKCL_-383" vertex="1">
          <mxGeometry x="46.98999999999998" y="394.08" width="8.57" height="59.62" as="geometry" />
        </mxCell>
        <mxCell id="AM_hhl6KOl27GlRnKCL_-32" value="" style="rounded=0;whiteSpace=wrap;html=1;" parent="AM_hhl6KOl27GlRnKCL_-383" vertex="1">
          <mxGeometry x="55.56" y="424.08" width="8.57" height="29.62" as="geometry" />
        </mxCell>
        <mxCell id="AM_hhl6KOl27GlRnKCL_-33" value="" style="rounded=0;whiteSpace=wrap;html=1;" parent="AM_hhl6KOl27GlRnKCL_-383" vertex="1">
          <mxGeometry x="64.13999999999999" y="434.08" width="8.57" height="19.62" as="geometry" />
        </mxCell>
        <mxCell id="AM_hhl6KOl27GlRnKCL_-34" value="" style="rounded=0;whiteSpace=wrap;html=1;" parent="AM_hhl6KOl27GlRnKCL_-383" vertex="1">
          <mxGeometry x="72.71000000000001" y="443.7" width="8.57" height="10" as="geometry" />
        </mxCell>
        <mxCell id="AM_hhl6KOl27GlRnKCL_-36" value="" style="shape=flexArrow;endArrow=classic;html=1;rounded=0;endWidth=8.757396449704142;endSize=4.1038461538461535;width=4.230769230769231;fillColor=#000000;" parent="AM_hhl6KOl27GlRnKCL_-383" edge="1">
          <mxGeometry width="50" height="50" relative="1" as="geometry">
            <mxPoint x="100.55999999999997" y="423.46999999999997" as="sourcePoint" />
            <mxPoint x="141.98999999999998" y="423.46999999999997" as="targetPoint" />
          </mxGeometry>
        </mxCell>
        <mxCell id="AM_hhl6KOl27GlRnKCL_-59" value="&lt;font style=&quot;font-size: 9px;&quot;&gt;Transformations&lt;/font&gt;" style="text;html=1;strokeColor=none;fillColor=none;align=center;verticalAlign=middle;whiteSpace=wrap;rounded=0;" parent="AM_hhl6KOl27GlRnKCL_-383" vertex="1">
          <mxGeometry x="72.69999999999996" y="463.89" width="100" height="20" as="geometry" />
        </mxCell>
        <mxCell id="ty6WnAqrlYs5BX0VCluu-2" style="edgeStyle=orthogonalEdgeStyle;rounded=0;orthogonalLoop=1;jettySize=auto;html=1;exitX=0.75;exitY=1;exitDx=0;exitDy=0;entryX=0.25;entryY=0;entryDx=0;entryDy=0;" parent="1" source="AM_hhl6KOl27GlRnKCL_-384" target="AM_hhl6KOl27GlRnKCL_-385" edge="1">
          <mxGeometry relative="1" as="geometry" />
        </mxCell>
        <mxCell id="AM_hhl6KOl27GlRnKCL_-384" value="2. Level Selection" style="swimlane;whiteSpace=wrap;html=1;" parent="1" vertex="1">
          <mxGeometry x="415.54" y="-425" width="264.46" height="785" as="geometry" />
        </mxCell>
        <mxCell id="gHRg_Ow1X1IjPOis13Zk-21" value="" style="edgeStyle=orthogonalEdgeStyle;rounded=0;orthogonalLoop=1;jettySize=auto;html=1;endArrow=none;endFill=0;startArrow=classic;startFill=1;" edge="1" parent="AM_hhl6KOl27GlRnKCL_-384" source="AM_hhl6KOl27GlRnKCL_-395" target="AM_hhl6KOl27GlRnKCL_-284">
          <mxGeometry relative="1" as="geometry" />
        </mxCell>
        <mxCell id="gHRg_Ow1X1IjPOis13Zk-45" style="edgeStyle=orthogonalEdgeStyle;rounded=0;orthogonalLoop=1;jettySize=auto;html=1;exitX=0.5;exitY=1;exitDx=0;exitDy=0;entryX=0.5;entryY=0;entryDx=0;entryDy=0;" edge="1" parent="AM_hhl6KOl27GlRnKCL_-384" source="AM_hhl6KOl27GlRnKCL_-395" target="gHRg_Ow1X1IjPOis13Zk-44">
          <mxGeometry relative="1" as="geometry" />
        </mxCell>
        <mxCell id="AM_hhl6KOl27GlRnKCL_-395" value="&lt;font size=&quot;1&quot;&gt;Selected Levels&lt;/font&gt;" style="rounded=0;whiteSpace=wrap;html=1;" parent="AM_hhl6KOl27GlRnKCL_-384" vertex="1">
          <mxGeometry x="85.33999999999999" y="625" width="79.18" height="20" as="geometry" />
        </mxCell>
        <mxCell id="AM_hhl6KOl27GlRnKCL_-284" value="" style="rounded=0;whiteSpace=wrap;html=1;fillColor=none;" parent="AM_hhl6KOl27GlRnKCL_-384" vertex="1">
          <mxGeometry x="24.930000000000007" y="492.35" width="200" height="105.3" as="geometry" />
        </mxCell>
        <mxCell id="gHRg_Ow1X1IjPOis13Zk-44" value="" style="rounded=0;whiteSpace=wrap;html=1;" vertex="1" parent="AM_hhl6KOl27GlRnKCL_-384">
          <mxGeometry x="80.92999999999996" y="675" width="90" height="60" as="geometry" />
        </mxCell>
        <mxCell id="gHRg_Ow1X1IjPOis13Zk-23" value="" style="rounded=0;whiteSpace=wrap;html=1;fillColor=#000000;" vertex="1" parent="AM_hhl6KOl27GlRnKCL_-384">
          <mxGeometry x="92.35999999999991" y="685" width="8.57" height="10" as="geometry" />
        </mxCell>
        <mxCell id="gHRg_Ow1X1IjPOis13Zk-24" value="" style="rounded=0;whiteSpace=wrap;html=1;" vertex="1" parent="AM_hhl6KOl27GlRnKCL_-384">
          <mxGeometry x="92.35999999999991" y="695" width="8.57" height="10" as="geometry" />
        </mxCell>
        <mxCell id="gHRg_Ow1X1IjPOis13Zk-25" value="" style="rounded=0;whiteSpace=wrap;html=1;" vertex="1" parent="AM_hhl6KOl27GlRnKCL_-384">
          <mxGeometry x="92.35999999999991" y="705" width="8.57" height="10" as="geometry" />
        </mxCell>
        <mxCell id="gHRg_Ow1X1IjPOis13Zk-26" value="" style="rounded=0;whiteSpace=wrap;html=1;" vertex="1" parent="AM_hhl6KOl27GlRnKCL_-384">
          <mxGeometry x="92.36000000000003" y="715" width="8.57" height="10" as="geometry" />
        </mxCell>
        <mxCell id="gHRg_Ow1X1IjPOis13Zk-28" value="" style="rounded=0;whiteSpace=wrap;html=1;" vertex="1" parent="AM_hhl6KOl27GlRnKCL_-384">
          <mxGeometry x="110.92999999999996" y="685" width="8.57" height="10" as="geometry" />
        </mxCell>
        <mxCell id="gHRg_Ow1X1IjPOis13Zk-29" value="" style="rounded=0;whiteSpace=wrap;html=1;" vertex="1" parent="AM_hhl6KOl27GlRnKCL_-384">
          <mxGeometry x="110.92999999999996" y="695" width="8.57" height="10" as="geometry" />
        </mxCell>
        <mxCell id="gHRg_Ow1X1IjPOis13Zk-30" value="" style="rounded=0;whiteSpace=wrap;html=1;fillColor=#000000;" vertex="1" parent="AM_hhl6KOl27GlRnKCL_-384">
          <mxGeometry x="110.92999999999996" y="705" width="8.57" height="10" as="geometry" />
        </mxCell>
        <mxCell id="gHRg_Ow1X1IjPOis13Zk-31" value="" style="rounded=0;whiteSpace=wrap;html=1;" vertex="1" parent="AM_hhl6KOl27GlRnKCL_-384">
          <mxGeometry x="110.92999999999996" y="715" width="8.57" height="10" as="geometry" />
        </mxCell>
        <mxCell id="gHRg_Ow1X1IjPOis13Zk-33" value="" style="rounded=0;whiteSpace=wrap;html=1;" vertex="1" parent="AM_hhl6KOl27GlRnKCL_-384">
          <mxGeometry x="130.92999999999995" y="685" width="8.57" height="10" as="geometry" />
        </mxCell>
        <mxCell id="gHRg_Ow1X1IjPOis13Zk-34" value="" style="rounded=0;whiteSpace=wrap;html=1;fillColor=#000000;" vertex="1" parent="AM_hhl6KOl27GlRnKCL_-384">
          <mxGeometry x="130.92999999999995" y="695" width="8.57" height="10" as="geometry" />
        </mxCell>
        <mxCell id="gHRg_Ow1X1IjPOis13Zk-35" value="" style="rounded=0;whiteSpace=wrap;html=1;" vertex="1" parent="AM_hhl6KOl27GlRnKCL_-384">
          <mxGeometry x="130.92999999999995" y="705" width="8.57" height="10" as="geometry" />
        </mxCell>
        <mxCell id="gHRg_Ow1X1IjPOis13Zk-36" value="" style="rounded=0;whiteSpace=wrap;html=1;" vertex="1" parent="AM_hhl6KOl27GlRnKCL_-384">
          <mxGeometry x="130.92999999999995" y="715" width="8.57" height="10" as="geometry" />
        </mxCell>
        <mxCell id="gHRg_Ow1X1IjPOis13Zk-38" value="" style="rounded=0;whiteSpace=wrap;html=1;" vertex="1" parent="AM_hhl6KOl27GlRnKCL_-384">
          <mxGeometry x="151.07999999999993" y="685" width="8.57" height="10" as="geometry" />
        </mxCell>
        <mxCell id="gHRg_Ow1X1IjPOis13Zk-39" value="" style="rounded=0;whiteSpace=wrap;html=1;" vertex="1" parent="AM_hhl6KOl27GlRnKCL_-384">
          <mxGeometry x="151.07999999999993" y="695" width="8.57" height="10" as="geometry" />
        </mxCell>
        <mxCell id="gHRg_Ow1X1IjPOis13Zk-40" value="" style="rounded=0;whiteSpace=wrap;html=1;" vertex="1" parent="AM_hhl6KOl27GlRnKCL_-384">
          <mxGeometry x="151.07999999999993" y="705" width="8.57" height="10" as="geometry" />
        </mxCell>
        <mxCell id="gHRg_Ow1X1IjPOis13Zk-41" value="" style="rounded=0;whiteSpace=wrap;html=1;fillColor=#000000;" vertex="1" parent="AM_hhl6KOl27GlRnKCL_-384">
          <mxGeometry x="151.07999999999993" y="715" width="8.57" height="10" as="geometry" />
        </mxCell>
        <mxCell id="gHRg_Ow1X1IjPOis13Zk-43" value="&lt;font size=&quot;1&quot;&gt;Sensitivity Analysis&lt;/font&gt;" style="rounded=0;whiteSpace=wrap;html=1;" vertex="1" parent="AM_hhl6KOl27GlRnKCL_-384">
          <mxGeometry x="86.33999999999993" y="735" width="79.18" height="30" as="geometry" />
        </mxCell>
        <mxCell id="AM_hhl6KOl27GlRnKCL_-385" value="3. Variable Selection" style="swimlane;whiteSpace=wrap;html=1;" parent="1" vertex="1">
          <mxGeometry x="740" y="-382.5" width="272.23" height="742.5" as="geometry" />
        </mxCell>
        <mxCell id="AM_hhl6KOl27GlRnKCL_-392" style="edgeStyle=orthogonalEdgeStyle;rounded=0;orthogonalLoop=1;jettySize=auto;html=1;exitX=0.5;exitY=1;exitDx=0;exitDy=0;entryX=0.5;entryY=0;entryDx=0;entryDy=0;endSize=2;" parent="AM_hhl6KOl27GlRnKCL_-385" source="AM_hhl6KOl27GlRnKCL_-386" target="AM_hhl6KOl27GlRnKCL_-315" edge="1">
          <mxGeometry relative="1" as="geometry" />
        </mxCell>
        <mxCell id="AM_hhl6KOl27GlRnKCL_-386" value="&lt;font style=&quot;font-size: 9px;&quot;&gt;Fixed Effects&lt;/font&gt;" style="rounded=0;whiteSpace=wrap;html=1;" parent="AM_hhl6KOl27GlRnKCL_-385" vertex="1">
          <mxGeometry x="39.99999999999993" y="330" width="69.84" height="20" as="geometry" />
        </mxCell>
        <mxCell id="AM_hhl6KOl27GlRnKCL_-393" style="edgeStyle=orthogonalEdgeStyle;rounded=0;orthogonalLoop=1;jettySize=auto;html=1;exitX=0.5;exitY=1;exitDx=0;exitDy=0;entryX=0.5;entryY=0;entryDx=0;entryDy=0;endSize=2;" parent="AM_hhl6KOl27GlRnKCL_-385" source="AM_hhl6KOl27GlRnKCL_-387" target="AM_hhl6KOl27GlRnKCL_-315" edge="1">
          <mxGeometry relative="1" as="geometry" />
        </mxCell>
        <mxCell id="AM_hhl6KOl27GlRnKCL_-387" value="&lt;font size=&quot;1&quot;&gt;Mixed Effects&lt;/font&gt;" style="rounded=0;whiteSpace=wrap;html=1;" parent="AM_hhl6KOl27GlRnKCL_-385" vertex="1">
          <mxGeometry x="149.83999999999997" y="330" width="68.22" height="20" as="geometry" />
        </mxCell>
        <mxCell id="gHRg_Ow1X1IjPOis13Zk-65" style="edgeStyle=orthogonalEdgeStyle;rounded=0;orthogonalLoop=1;jettySize=auto;html=1;exitX=0.5;exitY=1;exitDx=0;exitDy=0;entryX=0.5;entryY=0;entryDx=0;entryDy=0;" edge="1" parent="AM_hhl6KOl27GlRnKCL_-385" source="AM_hhl6KOl27GlRnKCL_-388" target="gHRg_Ow1X1IjPOis13Zk-47">
          <mxGeometry relative="1" as="geometry" />
        </mxCell>
        <mxCell id="AM_hhl6KOl27GlRnKCL_-388" value="&lt;font size=&quot;1&quot;&gt;Final Model&lt;/font&gt;" style="rounded=0;whiteSpace=wrap;html=1;" parent="AM_hhl6KOl27GlRnKCL_-385" vertex="1">
          <mxGeometry x="93.61" y="540" width="68.22" height="20" as="geometry" />
        </mxCell>
        <mxCell id="AM_hhl6KOl27GlRnKCL_-304" value="" style="endArrow=classic;html=1;rounded=0;endSize=1;" parent="AM_hhl6KOl27GlRnKCL_-385" edge="1">
          <mxGeometry width="50" height="50" relative="1" as="geometry">
            <mxPoint x="86.21999999999996" y="473.39000000000004" as="sourcePoint" />
            <mxPoint x="86.21999999999996" y="393.39" as="targetPoint" />
          </mxGeometry>
        </mxCell>
        <mxCell id="AM_hhl6KOl27GlRnKCL_-305" value="" style="endArrow=classic;html=1;rounded=0;startSize=6;endSize=1;" parent="AM_hhl6KOl27GlRnKCL_-385" edge="1">
          <mxGeometry width="50" height="50" relative="1" as="geometry">
            <mxPoint x="86.21999999999996" y="473.39000000000004" as="sourcePoint" />
            <mxPoint x="166.21999999999997" y="473.39000000000004" as="targetPoint" />
          </mxGeometry>
        </mxCell>
        <mxCell id="AM_hhl6KOl27GlRnKCL_-306" value="" style="ellipse;whiteSpace=wrap;html=1;aspect=fixed;fillColor=#000000;" parent="AM_hhl6KOl27GlRnKCL_-385" vertex="1">
          <mxGeometry x="96.21999999999996" y="443.39000000000004" width="3" height="3" as="geometry" />
        </mxCell>
        <mxCell id="AM_hhl6KOl27GlRnKCL_-307" value="" style="ellipse;whiteSpace=wrap;html=1;aspect=fixed;fillColor=#000000;" parent="AM_hhl6KOl27GlRnKCL_-385" vertex="1">
          <mxGeometry x="106.21999999999996" y="423.39000000000004" width="3" height="3" as="geometry" />
        </mxCell>
        <mxCell id="AM_hhl6KOl27GlRnKCL_-308" value="" style="ellipse;whiteSpace=wrap;html=1;aspect=fixed;fillColor=#000000;" parent="AM_hhl6KOl27GlRnKCL_-385" vertex="1">
          <mxGeometry x="126.21999999999996" y="413.39000000000004" width="3" height="3" as="geometry" />
        </mxCell>
        <mxCell id="AM_hhl6KOl27GlRnKCL_-309" value="" style="ellipse;whiteSpace=wrap;html=1;aspect=fixed;fillColor=#000000;" parent="AM_hhl6KOl27GlRnKCL_-385" vertex="1">
          <mxGeometry x="146.21999999999997" y="413.39000000000004" width="3" height="3" as="geometry" />
        </mxCell>
        <mxCell id="AM_hhl6KOl27GlRnKCL_-310" value="" style="endArrow=none;html=1;rounded=0;" parent="AM_hhl6KOl27GlRnKCL_-385" edge="1">
          <mxGeometry width="50" height="50" relative="1" as="geometry">
            <mxPoint x="97.5299999999999" y="449.89000000000004" as="sourcePoint" />
            <mxPoint x="97.5299999999999" y="439.89000000000004" as="targetPoint" />
          </mxGeometry>
        </mxCell>
        <mxCell id="AM_hhl6KOl27GlRnKCL_-311" value="" style="endArrow=none;html=1;rounded=0;" parent="AM_hhl6KOl27GlRnKCL_-385" edge="1">
          <mxGeometry width="50" height="50" relative="1" as="geometry">
            <mxPoint x="107.5299999999999" y="434.89000000000004" as="sourcePoint" />
            <mxPoint x="107.5299999999999" y="414.89000000000004" as="targetPoint" />
          </mxGeometry>
        </mxCell>
        <mxCell id="AM_hhl6KOl27GlRnKCL_-312" value="" style="endArrow=none;html=1;rounded=0;" parent="AM_hhl6KOl27GlRnKCL_-385" edge="1">
          <mxGeometry width="50" height="50" relative="1" as="geometry">
            <mxPoint x="127.5299999999999" y="424.89000000000004" as="sourcePoint" />
            <mxPoint x="127.5299999999999" y="404.89000000000004" as="targetPoint" />
          </mxGeometry>
        </mxCell>
        <mxCell id="AM_hhl6KOl27GlRnKCL_-313" value="" style="endArrow=none;html=1;rounded=0;" parent="AM_hhl6KOl27GlRnKCL_-385" edge="1">
          <mxGeometry width="50" height="50" relative="1" as="geometry">
            <mxPoint x="147.52999999999992" y="424.89000000000004" as="sourcePoint" />
            <mxPoint x="147.52999999999992" y="404.89000000000004" as="targetPoint" />
          </mxGeometry>
        </mxCell>
        <mxCell id="AM_hhl6KOl27GlRnKCL_-314" value="" style="endArrow=none;dashed=1;html=1;rounded=0;" parent="AM_hhl6KOl27GlRnKCL_-385" edge="1">
          <mxGeometry width="50" height="50" relative="1" as="geometry">
            <mxPoint x="86.21999999999996" y="413.39000000000004" as="sourcePoint" />
            <mxPoint x="166.21999999999997" y="413.39000000000004" as="targetPoint" />
          </mxGeometry>
        </mxCell>
        <mxCell id="AM_hhl6KOl27GlRnKCL_-315" value="" style="rounded=0;whiteSpace=wrap;html=1;fillColor=none;" parent="AM_hhl6KOl27GlRnKCL_-385" vertex="1">
          <mxGeometry x="72.8" y="384.89" width="114.08" height="105.3" as="geometry" />
        </mxCell>
        <mxCell id="AM_hhl6KOl27GlRnKCL_-394" style="edgeStyle=orthogonalEdgeStyle;rounded=0;orthogonalLoop=1;jettySize=auto;html=1;exitX=0.5;exitY=1;exitDx=0;exitDy=0;entryX=0.5;entryY=0;entryDx=0;entryDy=0;" parent="AM_hhl6KOl27GlRnKCL_-385" source="AM_hhl6KOl27GlRnKCL_-316" target="AM_hhl6KOl27GlRnKCL_-388" edge="1">
          <mxGeometry relative="1" as="geometry" />
        </mxCell>
        <mxCell id="AM_hhl6KOl27GlRnKCL_-316" value="&lt;font style=&quot;font-size: 9px;&quot;&gt;Model Comparison&lt;/font&gt;" style="text;html=1;strokeColor=none;fillColor=none;align=center;verticalAlign=middle;whiteSpace=wrap;rounded=0;" parent="AM_hhl6KOl27GlRnKCL_-385" vertex="1">
          <mxGeometry x="77.29999999999988" y="490.19000000000005" width="100" height="20" as="geometry" />
        </mxCell>
        <mxCell id="gHRg_Ow1X1IjPOis13Zk-47" value="" style="rounded=0;whiteSpace=wrap;html=1;" vertex="1" parent="AM_hhl6KOl27GlRnKCL_-385">
          <mxGeometry x="82.72000000000003" y="612.5" width="90" height="60" as="geometry" />
        </mxCell>
        <mxCell id="gHRg_Ow1X1IjPOis13Zk-48" value="" style="rounded=0;whiteSpace=wrap;html=1;fillColor=#000000;" vertex="1" parent="AM_hhl6KOl27GlRnKCL_-385">
          <mxGeometry x="94.14999999999986" y="622.5" width="8.57" height="10" as="geometry" />
        </mxCell>
        <mxCell id="gHRg_Ow1X1IjPOis13Zk-49" value="" style="rounded=0;whiteSpace=wrap;html=1;" vertex="1" parent="AM_hhl6KOl27GlRnKCL_-385">
          <mxGeometry x="94.14999999999986" y="632.5" width="8.57" height="10" as="geometry" />
        </mxCell>
        <mxCell id="gHRg_Ow1X1IjPOis13Zk-50" value="" style="rounded=0;whiteSpace=wrap;html=1;" vertex="1" parent="AM_hhl6KOl27GlRnKCL_-385">
          <mxGeometry x="94.14999999999986" y="642.5" width="8.57" height="10" as="geometry" />
        </mxCell>
        <mxCell id="gHRg_Ow1X1IjPOis13Zk-51" value="" style="rounded=0;whiteSpace=wrap;html=1;" vertex="1" parent="AM_hhl6KOl27GlRnKCL_-385">
          <mxGeometry x="94.15000000000009" y="652.5" width="8.57" height="10" as="geometry" />
        </mxCell>
        <mxCell id="gHRg_Ow1X1IjPOis13Zk-52" value="" style="rounded=0;whiteSpace=wrap;html=1;" vertex="1" parent="AM_hhl6KOl27GlRnKCL_-385">
          <mxGeometry x="112.72000000000003" y="622.5" width="8.57" height="10" as="geometry" />
        </mxCell>
        <mxCell id="gHRg_Ow1X1IjPOis13Zk-53" value="" style="rounded=0;whiteSpace=wrap;html=1;" vertex="1" parent="AM_hhl6KOl27GlRnKCL_-385">
          <mxGeometry x="112.72000000000003" y="632.5" width="8.57" height="10" as="geometry" />
        </mxCell>
        <mxCell id="gHRg_Ow1X1IjPOis13Zk-54" value="" style="rounded=0;whiteSpace=wrap;html=1;fillColor=#000000;" vertex="1" parent="AM_hhl6KOl27GlRnKCL_-385">
          <mxGeometry x="112.72000000000003" y="642.5" width="8.57" height="10" as="geometry" />
        </mxCell>
        <mxCell id="gHRg_Ow1X1IjPOis13Zk-55" value="" style="rounded=0;whiteSpace=wrap;html=1;" vertex="1" parent="AM_hhl6KOl27GlRnKCL_-385">
          <mxGeometry x="112.72000000000003" y="652.5" width="8.57" height="10" as="geometry" />
        </mxCell>
        <mxCell id="gHRg_Ow1X1IjPOis13Zk-56" value="" style="rounded=0;whiteSpace=wrap;html=1;" vertex="1" parent="AM_hhl6KOl27GlRnKCL_-385">
          <mxGeometry x="132.72000000000003" y="622.5" width="8.57" height="10" as="geometry" />
        </mxCell>
        <mxCell id="gHRg_Ow1X1IjPOis13Zk-57" value="" style="rounded=0;whiteSpace=wrap;html=1;fillColor=#000000;" vertex="1" parent="AM_hhl6KOl27GlRnKCL_-385">
          <mxGeometry x="132.72000000000003" y="632.5" width="8.57" height="10" as="geometry" />
        </mxCell>
        <mxCell id="gHRg_Ow1X1IjPOis13Zk-58" value="" style="rounded=0;whiteSpace=wrap;html=1;" vertex="1" parent="AM_hhl6KOl27GlRnKCL_-385">
          <mxGeometry x="132.72000000000003" y="642.5" width="8.57" height="10" as="geometry" />
        </mxCell>
        <mxCell id="gHRg_Ow1X1IjPOis13Zk-59" value="" style="rounded=0;whiteSpace=wrap;html=1;" vertex="1" parent="AM_hhl6KOl27GlRnKCL_-385">
          <mxGeometry x="132.72000000000003" y="652.5" width="8.57" height="10" as="geometry" />
        </mxCell>
        <mxCell id="gHRg_Ow1X1IjPOis13Zk-60" value="" style="rounded=0;whiteSpace=wrap;html=1;" vertex="1" parent="AM_hhl6KOl27GlRnKCL_-385">
          <mxGeometry x="152.8699999999999" y="622.5" width="8.57" height="10" as="geometry" />
        </mxCell>
        <mxCell id="gHRg_Ow1X1IjPOis13Zk-61" value="" style="rounded=0;whiteSpace=wrap;html=1;" vertex="1" parent="AM_hhl6KOl27GlRnKCL_-385">
          <mxGeometry x="152.8699999999999" y="632.5" width="8.57" height="10" as="geometry" />
        </mxCell>
        <mxCell id="gHRg_Ow1X1IjPOis13Zk-62" value="" style="rounded=0;whiteSpace=wrap;html=1;" vertex="1" parent="AM_hhl6KOl27GlRnKCL_-385">
          <mxGeometry x="152.8699999999999" y="642.5" width="8.57" height="10" as="geometry" />
        </mxCell>
        <mxCell id="gHRg_Ow1X1IjPOis13Zk-63" value="" style="rounded=0;whiteSpace=wrap;html=1;fillColor=#000000;" vertex="1" parent="AM_hhl6KOl27GlRnKCL_-385">
          <mxGeometry x="152.8699999999999" y="652.5" width="8.57" height="10" as="geometry" />
        </mxCell>
        <mxCell id="gHRg_Ow1X1IjPOis13Zk-64" value="&lt;font size=&quot;1&quot;&gt;Sensitivity Analysis&lt;/font&gt;" style="rounded=0;whiteSpace=wrap;html=1;" vertex="1" parent="AM_hhl6KOl27GlRnKCL_-385">
          <mxGeometry x="88.12999999999988" y="672.5" width="79.18" height="30" as="geometry" />
        </mxCell>
        <mxCell id="ty6WnAqrlYs5BX0VCluu-1" value="&lt;font style=&quot;font-size: 13px;&quot;&gt;Variance Components Model&lt;/font&gt;" style="rounded=0;whiteSpace=wrap;html=1;" parent="1" vertex="1">
          <mxGeometry x="482.42999999999995" y="430" width="120.04" height="50" as="geometry" />
        </mxCell>
        <mxCell id="ty6WnAqrlYs5BX0VCluu-5" value="&lt;font style=&quot;font-size: 13px;&quot;&gt;Mixed Effects &lt;br&gt;Model&lt;/font&gt;" style="rounded=0;whiteSpace=wrap;html=1;" parent="1" vertex="1">
          <mxGeometry x="807.7" y="430" width="120.04" height="50" as="geometry" />
        </mxCell>
        <mxCell id="ty6WnAqrlYs5BX0VCluu-8" value="&lt;font size=&quot;1&quot; style=&quot;&quot;&gt;&lt;b style=&quot;font-size: 23px;&quot;&gt;Outputs&lt;/b&gt;&lt;/font&gt;" style="text;html=1;strokeColor=none;fillColor=none;align=center;verticalAlign=middle;whiteSpace=wrap;rounded=0;" parent="1" vertex="1">
          <mxGeometry x="645.49" y="490" width="130" height="30" as="geometry" />
        </mxCell>
        <mxCell id="gHRg_Ow1X1IjPOis13Zk-46" style="edgeStyle=orthogonalEdgeStyle;rounded=0;orthogonalLoop=1;jettySize=auto;html=1;exitX=0.5;exitY=1;exitDx=0;exitDy=0;" edge="1" parent="1" source="gHRg_Ow1X1IjPOis13Zk-43" target="ty6WnAqrlYs5BX0VCluu-1">
          <mxGeometry relative="1" as="geometry" />
        </mxCell>
        <mxCell id="gHRg_Ow1X1IjPOis13Zk-66" style="edgeStyle=orthogonalEdgeStyle;rounded=0;orthogonalLoop=1;jettySize=auto;html=1;exitX=0.5;exitY=1;exitDx=0;exitDy=0;" edge="1" parent="1" source="gHRg_Ow1X1IjPOis13Zk-64" target="ty6WnAqrlYs5BX0VCluu-5">
          <mxGeometry relative="1" as="geometry" />
        </mxCell>
      </root>
    </mxGraphModel>
  </diagram>
</mxfile>
